<?xml version="1.0" encoding="UTF-8" ?>
<!DOCTYPE svg PUBLIC "-//W3C//DTD SVG 1.1//EN" "http://www.w3.org/Graphics/SVG/1.1/DTD/svg11.dtd">
<svg width="400pt" height="138pt" viewBox="0 0 400 138" version="1.1" xmlns="http://www.w3.org/2000/svg">
<g id="#ffffffff">
<path fill="#ffffff" opacity="1.00" d=" M 0.00 7.47 C 0.47 2.00 6.90 -1.69 11.78 0.95 C 14.28 2.38 17.23 2.10 19.91 2.94 C 22.94 4.07 24.53 7.07 26.07 9.70 C 27.97 10.55 29.56 11.88 30.46 13.78 C 30.77 11.36 31.21 8.80 32.96 6.96 C 34.93 4.31 38.48 3.98 40.87 1.86 C 45.07 -1.82 52.43 0.57 53.88 5.89 C 54.93 8.48 53.64 11.06 52.41 13.31 C 53.02 17.46 50.52 21.07 47.02 23.03 C 45.52 27.06 41.14 29.18 36.99 28.14 C 40.20 26.38 42.80 23.91 44.44 20.63 C 47.42 18.96 49.68 16.06 48.70 12.43 C 50.14 10.29 51.08 7.15 48.75 5.23 C 46.51 2.95 43.23 4.36 41.51 6.50 C 37.13 6.99 33.94 10.42 33.48 14.75 C 32.21 16.86 31.23 19.13 30.20 21.36 C 29.38 17.49 27.69 13.36 23.30 12.60 C 22.09 7.79 17.21 5.17 12.46 5.79 C 10.26 4.07 6.77 3.35 5.01 6.07 C 2.90 8.45 4.74 11.40 6.73 13.10 C 7.22 17.84 10.86 21.57 15.62 22.07 C 17.26 25.10 20.42 26.36 23.39 27.68 C 21.53 29.22 18.82 29.44 16.88 31.00 C 14.27 31.32 11.34 31.26 9.21 33.06 C 7.63 34.89 6.35 36.96 4.84 38.85 C 3.04 40.97 4.61 44.40 7.06 45.18 C 8.81 45.94 10.50 44.78 12.12 44.24 C 15.46 45.87 19.12 44.86 21.45 42.04 C 25.09 41.89 28.34 40.29 31.14 38.05 C 30.80 42.27 27.04 44.87 23.14 45.47 C 20.33 47.85 16.85 49.09 13.14 48.35 C 8.03 51.36 0.72 48.53 0.00 42.37 L 0.00 40.12 C 0.40 37.83 1.86 36.03 3.58 34.56 C 5.45 29.50 11.17 27.77 16.11 28.02 C 15.24 27.15 14.38 26.26 13.53 25.36 C 8.36 24.75 4.07 20.48 3.54 15.28 C 1.97 13.68 0.47 11.91 0.00 9.65 L 0.00 7.47 Z" />
<path fill="#ffffff" opacity="1.00" d=" M 93.16 8.14 C 96.93 0.34 107.48 -1.95 114.83 1.97 C 122.86 6.19 126.60 15.12 133.87 20.26 C 144.58 28.18 153.18 38.61 160.26 49.82 C 170.83 66.02 180.77 82.77 188.11 100.71 C 189.75 105.09 191.86 109.59 191.33 114.40 C 185.76 114.18 181.47 110.12 177.08 107.16 C 179.16 113.33 181.48 119.42 183.69 125.56 C 184.33 127.33 184.85 129.92 182.87 131.04 C 179.44 132.47 174.85 130.04 171.98 133.06 C 169.82 134.72 168.18 138.05 165.05 137.62 C 162.82 137.32 162.46 134.76 162.05 132.99 C 159.93 121.41 157.73 109.82 156.38 98.13 C 158.56 98.09 158.06 100.60 158.67 101.95 C 160.74 110.66 163.19 119.29 164.96 128.07 C 165.34 129.34 165.30 130.87 166.29 131.87 C 168.29 131.55 169.50 129.44 170.77 128.01 C 170.17 121.88 168.03 116.00 167.53 109.84 L 168.62 110.54 C 171.04 115.95 172.27 121.82 174.75 127.21 C 176.42 127.21 178.09 127.22 179.76 127.22 C 179.92 124.65 178.66 122.33 177.93 119.94 C 175.97 114.62 174.31 109.16 172.13 103.94 C 156.76 92.19 141.86 79.34 130.58 63.47 C 125.30 56.01 121.02 47.76 118.69 38.89 C 118.24 37.38 118.14 35.80 118.21 34.23 C 119.71 35.42 120.29 37.29 121.09 38.95 C 127.44 53.00 136.13 66.02 146.87 77.10 C 158.73 89.23 172.57 99.17 186.59 108.62 C 180.70 92.67 172.63 77.63 163.80 63.13 C 154.63 48.51 145.09 33.44 130.84 23.21 C 124.10 18.60 120.70 10.52 113.74 6.19 C 109.76 3.67 104.29 3.44 100.36 6.18 C 95.84 8.98 95.85 14.94 92.60 18.77 C 93.76 18.78 96.08 18.80 97.24 18.82 C 96.39 20.28 95.54 21.75 94.67 23.21 C 98.40 22.72 102.60 21.92 106.02 23.96 C 108.87 25.60 109.50 29.09 110.02 32.06 C 111.07 39.18 111.37 46.66 114.81 53.16 C 117.94 59.99 123.00 65.61 128.02 71.09 C 127.13 71.23 126.20 71.31 125.56 70.53 C 118.11 64.67 111.05 57.34 108.59 47.92 C 106.83 41.98 106.69 35.70 105.13 29.72 C 104.75 27.80 102.97 26.65 101.14 26.36 C 97.12 25.65 93.10 26.78 89.16 27.49 C 90.13 25.60 91.10 23.73 92.07 21.85 C 90.00 21.84 87.94 21.84 85.87 21.84 C 88.56 17.41 91.41 13.05 93.16 8.14 Z" />
<path fill="#ffffff" opacity="1.00" d=" M 233.19 0.70 C 238.51 1.01 244.08 -0.13 249.20 1.69 C 255.05 3.91 254.60 14.23 248.15 15.32 C 254.40 16.60 256.55 25.61 251.44 29.41 C 245.99 32.78 239.26 31.39 233.19 31.70 C 233.19 21.36 233.19 11.03 233.19 0.70 M 236.15 3.11 C 236.15 6.90 236.15 10.69 236.15 14.48 C 239.93 14.28 243.97 15.13 247.53 13.55 C 251.29 11.75 251.18 5.45 247.29 3.87 C 243.77 2.43 239.84 3.34 236.15 3.11 M 236.18 16.86 C 236.13 20.96 236.15 25.06 236.15 29.16 C 240.15 28.96 244.40 29.80 248.20 28.18 C 252.11 26.55 252.34 20.23 248.70 18.18 C 244.87 16.11 240.34 17.07 236.18 16.86 Z" />
<path fill="#ffffff" opacity="1.00" d=" M 306.49 1.63 C 309.06 1.15 309.70 5.11 307.01 5.33 C 304.56 5.89 304.02 1.67 306.49 1.63 Z" />
<path fill="#ffffff" opacity="1.00" d=" M 163.86 4.07 C 165.23 4.07 166.61 4.07 167.99 4.07 C 165.90 8.79 163.45 13.69 163.70 18.98 C 163.92 21.66 166.96 21.67 168.96 21.22 C 175.30 19.91 181.23 17.18 187.37 15.16 C 187.37 16.22 187.37 18.34 187.37 19.40 C 180.37 21.59 173.54 24.93 166.14 25.37 C 161.89 25.59 159.32 21.50 159.64 17.63 C 157.08 21.80 154.53 26.00 151.48 29.83 C 150.57 28.88 149.68 27.91 148.78 26.95 C 154.28 19.65 159.28 11.99 163.86 4.07 Z" />
<path fill="#ffffff" opacity="1.00" d=" M 101.18 10.36 C 102.67 9.08 106.03 9.84 106.39 11.96 C 105.52 13.60 103.87 14.71 102.13 15.29 C 99.29 15.73 99.55 11.57 101.18 10.36 Z" />
<path fill="#ffffff" opacity="1.00" d=" M 259.92 10.48 C 260.59 10.30 261.92 9.93 262.59 9.74 C 262.85 15.20 262.23 20.71 262.91 26.13 C 264.05 31.19 271.62 30.72 273.48 26.41 C 275.82 21.25 274.31 15.36 274.75 9.89 C 275.44 9.88 276.82 9.88 277.51 9.87 C 277.56 17.15 277.53 24.43 277.53 31.71 C 276.89 31.70 275.61 31.68 274.97 31.67 C 274.91 30.50 274.86 29.34 274.82 28.18 C 272.47 31.63 267.77 33.21 263.90 31.46 C 260.99 30.26 259.75 26.96 259.87 24.00 C 259.92 19.50 259.79 14.99 259.92 10.48 Z" />
<path fill="#ffffff" opacity="1.00" d=" M 285.03 19.01 C 282.28 16.06 284.37 10.93 288.06 9.95 C 291.93 8.87 296.52 9.59 299.51 12.38 C 299.13 12.88 298.37 13.88 297.99 14.38 C 295.29 12.49 291.69 10.73 288.49 12.51 C 286.65 13.32 285.81 16.02 287.54 17.38 C 290.92 19.78 295.62 19.46 298.81 22.22 C 301.07 24.85 300.05 29.54 296.87 31.00 C 292.20 33.30 286.53 32.04 282.55 28.93 C 283.01 28.39 283.92 27.31 284.38 26.76 C 287.29 29.21 291.48 30.95 295.14 29.05 C 297.23 28.23 297.99 25.19 296.16 23.72 C 292.76 21.48 288.09 21.86 285.03 19.01 Z" />
<path fill="#ffffff" opacity="1.00" d=" M 305.50 9.75 C 307.33 9.49 308.20 10.20 308.11 11.90 C 308.17 18.44 308.00 24.98 308.19 31.52 C 307.28 31.60 306.38 31.69 305.48 31.76 C 305.48 24.43 305.44 17.09 305.50 9.75 Z" />
<path fill="#ffffff" opacity="1.00" d=" M 315.15 9.86 C 315.73 9.87 316.91 9.89 317.49 9.90 C 317.55 10.76 317.66 12.47 317.71 13.33 C 321.06 8.23 330.47 7.85 332.41 14.34 C 333.35 20.05 332.58 25.92 332.83 31.70 C 332.14 31.70 330.75 31.70 330.06 31.70 C 329.84 26.18 330.52 20.58 329.65 15.11 C 328.01 10.09 320.43 11.25 318.81 15.73 C 316.91 20.81 318.12 26.39 317.79 31.69 C 317.12 31.69 315.78 31.70 315.11 31.71 C 315.12 24.43 315.06 17.14 315.15 9.86 Z" />
<path fill="#ffffff" opacity="1.00" d=" M 341.99 29.96 C 335.04 24.14 337.78 9.36 347.96 9.47 C 354.35 8.82 358.11 15.50 357.40 21.14 C 351.91 21.16 346.43 21.11 340.94 21.18 C 341.12 24.42 342.36 28.11 345.72 29.27 C 349.30 30.88 353.15 28.92 355.66 26.32 C 356.08 26.75 356.92 27.61 357.34 28.04 C 353.73 32.56 346.55 33.61 341.99 29.96 M 340.92 18.73 C 345.53 18.84 350.14 18.82 354.75 18.75 C 354.51 15.53 352.64 12.02 349.04 11.83 C 344.77 11.14 341.55 14.85 340.92 18.73 Z" />
<path fill="#ffffff" opacity="1.00" d=" M 363.16 18.68 C 360.96 15.81 362.71 11.30 366.02 10.17 C 370.07 8.60 374.64 9.78 378.10 12.20 C 377.50 12.92 376.90 13.63 376.31 14.34 C 373.83 12.52 370.61 10.96 367.53 12.23 C 365.58 12.84 364.04 15.51 365.82 17.15 C 369.01 19.80 373.73 19.39 377.00 21.98 C 379.72 24.58 378.52 29.58 375.17 31.06 C 370.55 33.26 364.90 32.04 361.00 28.93 C 361.46 28.40 362.39 27.33 362.85 26.79 C 365.82 29.29 370.17 30.98 373.85 28.94 C 375.87 27.98 376.39 24.94 374.45 23.60 C 370.94 21.43 366.11 21.82 363.16 18.68 Z" />
<path fill="#ffffff" opacity="1.00" d=" M 386.35 10.53 C 390.49 8.50 395.77 9.45 399.20 12.47 C 398.74 12.93 397.82 13.85 397.37 14.31 C 394.97 12.64 392.01 11.05 389.02 12.09 C 386.87 12.55 385.16 15.24 386.82 17.13 C 390.22 19.91 395.36 19.33 398.56 22.44 C 400.77 25.26 399.34 29.75 396.14 31.13 C 391.51 33.23 385.95 32.00 382.06 28.90 C 382.53 28.37 383.46 27.31 383.92 26.78 C 386.77 29.10 390.71 30.86 394.32 29.23 C 396.39 28.54 397.68 25.77 396.02 24.04 C 392.61 21.25 387.29 22.06 384.23 18.66 C 382.30 16.04 383.49 11.97 386.35 10.53 Z" />
<path fill="#ffffff" opacity="1.00" d=" M 11.75 11.06 C 16.88 12.31 21.41 15.67 24.49 19.92 C 22.44 22.20 20.68 19.16 19.02 18.03 C 16.65 15.67 13.33 14.13 11.75 11.06 Z" />
<path fill="#ffffff" opacity="1.00" d=" M 34.68 22.22 C 36.53 17.69 39.58 13.21 44.06 10.99 C 42.35 15.67 38.90 19.45 36.47 23.77 C 36.02 23.38 35.13 22.60 34.68 22.22 Z" />
<path fill="#ffffff" opacity="1.00" d=" M 58.14 16.91 C 61.58 12.82 67.81 11.88 72.49 14.32 C 75.72 16.00 79.42 15.67 82.93 15.67 C 81.66 17.58 80.37 19.47 79.07 21.35 C 80.79 22.61 82.49 23.89 84.19 25.18 C 79.36 26.52 74.93 28.99 71.80 32.97 C 70.92 28.91 75.01 25.82 78.17 24.06 C 77.18 23.37 76.18 22.67 75.19 21.98 C 75.93 20.98 76.68 19.99 77.42 19.00 C 72.88 19.50 68.80 15.26 64.31 17.46 C 59.68 19.29 59.59 24.84 58.11 28.86 C 56.16 35.06 51.17 39.45 47.33 44.47 C 43.44 49.43 40.89 55.25 38.18 60.89 C 37.05 60.89 34.79 60.90 33.67 60.90 C 35.89 55.32 38.29 49.74 41.80 44.83 C 45.19 39.64 50.31 35.71 53.06 30.09 C 55.14 25.84 55.11 20.71 58.14 16.91 Z" />
<path fill="#ffffff" opacity="1.00" d=" M 66.25 24.58 C 65.08 22.98 65.95 20.33 67.96 19.92 C 69.59 19.73 70.69 20.81 71.57 22.01 C 70.44 23.68 68.42 25.51 66.25 24.58 Z" />
<path fill="#ffffff" opacity="1.00" d=" M 158.05 38.08 C 168.85 32.46 180.06 27.69 191.44 23.38 C 191.44 24.81 191.45 26.23 191.47 27.66 C 185.86 29.70 180.31 31.89 174.89 34.36 C 178.82 36.24 183.26 33.97 187.35 33.65 C 187.36 34.43 187.39 36.01 187.40 36.79 C 178.58 39.46 168.87 36.88 160.50 41.34 C 159.67 40.26 158.86 39.17 158.05 38.08 Z" />
<path fill="#ffffff" opacity="1.00" d=" M 29.50 28.58 C 29.90 28.16 30.70 27.31 31.11 26.89 C 34.60 30.56 37.46 34.79 39.97 39.18 C 39.01 40.41 38.06 41.65 37.11 42.89 C 35.09 37.87 32.51 33.09 29.50 28.58 Z" />
<path fill="#ffffff" opacity="1.00" d=" M 13.55 37.49 C 17.10 35.00 21.32 33.47 25.65 33.19 C 25.66 33.72 25.69 34.77 25.70 35.29 C 21.08 36.68 16.61 38.52 11.96 39.80 C 12.15 38.78 12.68 38.01 13.55 37.49 Z" />
<path fill="#ffffff" opacity="1.00" d=" M 64.56 39.57 C 66.94 35.36 72.19 33.31 76.84 34.42 C 80.61 35.40 84.46 34.68 88.17 33.80 C 87.31 35.85 86.46 37.91 85.78 40.03 C 87.66 40.80 89.54 41.57 91.46 42.24 C 85.71 46.39 81.38 52.74 80.93 59.96 C 80.47 62.00 81.23 64.56 79.57 66.17 C 76.42 58.05 78.92 48.57 85.37 42.80 C 84.25 42.34 83.12 41.87 82.00 41.40 C 82.50 40.25 83.00 39.10 83.51 37.96 C 79.08 39.75 73.77 36.18 69.89 39.85 C 65.74 43.02 67.51 48.65 65.88 52.92 C 63.23 58.17 59.38 62.67 56.13 67.54 C 54.91 66.91 53.69 66.28 52.47 65.65 C 54.84 61.69 57.60 58.00 60.36 54.32 C 63.86 50.12 61.63 44.02 64.56 39.57 Z" />
<path fill="#ffffff" opacity="1.00" d=" M 74.36 41.52 C 75.72 40.28 78.70 40.77 78.94 42.79 C 78.37 44.94 76.11 46.09 74.00 45.89 C 73.86 44.45 73.44 42.82 74.36 41.52 Z" />
<path fill="#ffffff" opacity="1.00" d=" M 233.14 47.07 C 234.64 43.20 239.12 41.53 243.01 41.78 C 246.73 41.58 250.09 43.39 253.12 45.33 C 252.60 46.20 252.07 47.07 251.53 47.92 C 247.95 44.99 242.80 42.94 238.38 45.30 C 235.26 46.74 234.45 51.63 237.46 53.60 C 241.91 56.57 248.06 56.08 252.00 59.99 C 255.45 63.73 253.73 70.42 249.16 72.43 C 243.23 75.11 235.63 73.81 231.10 69.05 C 231.58 68.52 232.54 67.46 233.02 66.92 C 236.78 70.82 242.95 72.61 247.91 69.99 C 250.96 68.56 252.03 64.03 249.44 61.68 C 245.09 58.41 238.97 58.81 234.79 55.20 C 232.43 53.27 232.24 49.77 233.14 47.07 Z" />
<path fill="#ffffff" opacity="1.00" d=" M 317.50 45.52 C 316.93 43.23 319.65 42.90 321.19 43.68 C 321.23 44.56 321.28 45.44 321.34 46.33 C 320.05 46.86 317.75 47.59 317.50 45.52 Z" />
<path fill="#ffffff" opacity="1.00" d=" M 258.98 57.06 C 260.97 51.49 268.59 49.29 273.35 52.67 C 276.50 54.81 277.42 58.92 277.23 62.51 C 271.75 63.04 266.18 62.54 260.66 62.74 C 260.93 65.87 262.11 69.33 265.19 70.73 C 268.74 72.54 272.89 70.80 275.31 67.95 C 275.96 68.53 276.63 69.11 277.29 69.69 C 273.79 73.81 267.40 75.14 262.73 72.26 C 257.83 69.07 257.14 62.17 258.98 57.06 M 263.78 54.78 C 261.98 56.07 261.45 58.35 260.74 60.32 C 265.36 60.38 269.97 60.36 274.59 60.34 C 274.06 58.40 273.89 56.10 272.17 54.78 C 269.80 52.94 266.18 53.06 263.78 54.78 Z" />
<path fill="#ffffff" opacity="1.00" d=" M 285.30 54.91 C 286.92 52.43 290.12 50.03 293.15 51.52 L 293.33 53.78 C 290.27 53.43 286.69 54.56 285.95 57.92 C 284.83 62.94 285.71 68.17 285.42 73.28 C 284.73 73.28 283.35 73.28 282.66 73.27 C 282.65 66.08 282.66 58.88 282.66 51.69 C 283.26 51.69 284.47 51.69 285.08 51.69 C 285.13 52.49 285.24 54.10 285.30 54.91 Z" />
<path fill="#ffffff" opacity="1.00" d=" M 317.99 51.69 C 318.95 51.69 319.91 51.70 320.88 51.71 C 320.78 58.90 320.87 66.09 320.83 73.27 C 320.12 73.28 318.72 73.28 318.02 73.28 C 317.98 66.08 318.03 58.88 317.99 51.69 Z" />
<path fill="#ffffff" opacity="1.00" d=" M 332.10 52.10 C 336.29 50.04 342.70 51.03 344.80 55.54 C 344.38 55.87 343.53 56.53 343.10 56.86 C 341.00 54.13 337.32 52.51 333.99 53.96 C 326.86 56.78 327.53 69.26 335.00 71.21 C 338.13 72.21 341.15 70.41 343.10 68.07 C 343.62 68.40 344.66 69.07 345.18 69.41 C 341.50 75.50 331.36 75.15 327.90 69.03 C 324.70 63.56 325.86 54.88 332.10 52.10 Z" />
<path fill="#ffffff" opacity="1.00" d=" M 349.35 56.18 C 352.01 50.75 360.13 49.30 364.45 53.57 C 366.90 55.90 367.23 59.47 367.32 62.66 C 361.76 62.80 356.20 62.67 350.64 62.74 C 350.93 66.15 352.46 70.04 356.05 71.09 C 359.47 72.28 363.07 70.54 365.29 67.92 C 365.95 68.51 366.62 69.10 367.29 69.69 C 363.78 73.78 357.37 75.17 352.72 72.25 C 347.55 68.89 346.93 61.39 349.35 56.18 M 353.81 54.73 C 352.01 56.06 351.47 58.34 350.75 60.33 C 355.37 60.37 359.99 60.37 364.61 60.34 C 364.08 58.64 363.95 56.69 362.70 55.33 C 360.45 52.93 356.42 52.92 353.81 54.73 Z" />
<path fill="#ffffff" opacity="1.00" d=" M 375.20 52.12 C 379.33 49.97 384.30 51.37 387.94 53.88 C 387.49 54.40 386.60 55.42 386.15 55.94 C 382.92 53.06 376.16 51.90 374.51 57.02 C 376.81 62.21 384.21 60.14 387.47 64.33 C 389.34 67.21 388.01 71.61 384.75 72.85 C 380.12 74.79 374.62 73.67 370.79 70.52 C 371.43 69.80 372.07 69.07 372.72 68.36 C 375.56 71.03 379.96 72.50 383.62 70.59 C 385.47 69.68 386.30 66.91 384.54 65.48 C 381.18 63.12 376.52 63.46 373.39 60.69 C 370.88 58.19 372.12 53.56 375.20 52.12 Z" />
<path fill="#ffffff" opacity="1.00" d=" M 11.38 57.37 C 17.25 52.85 25.12 52.36 32.25 51.82 C 31.75 52.90 31.24 53.98 30.73 55.06 C 25.26 55.83 19.17 56.11 14.83 60.01 C 16.70 63.94 21.02 65.65 24.97 66.67 C 29.15 67.99 32.74 64.37 36.88 64.74 C 43.11 65.39 48.88 68.14 54.39 70.98 C 53.66 71.82 52.93 72.66 52.19 73.50 C 45.75 71.30 38.69 66.86 31.84 70.10 C 25.92 72.93 19.78 69.27 14.70 66.36 C 14.57 73.90 22.72 77.61 28.71 79.94 C 28.94 80.99 29.16 82.04 29.37 83.09 C 24.93 82.74 20.88 80.87 17.05 78.72 C 16.83 83.58 21.03 86.80 23.92 90.12 C 26.62 93.12 30.66 89.99 33.98 90.70 C 40.68 92.11 46.30 96.51 51.06 101.24 C 50.09 102.02 49.12 102.80 48.15 103.58 C 44.30 99.97 40.06 96.53 34.98 94.87 C 30.66 93.28 26.48 95.96 22.57 97.50 C 17.31 100.01 11.54 101.47 6.58 104.58 C 3.16 106.98 4.64 111.58 4.06 115.08 C 3.68 116.99 1.41 116.59 0.00 116.98 L 0.00 109.27 C 0.20 105.93 1.85 102.61 4.93 101.07 C 10.33 98.37 15.98 96.19 21.56 93.88 C 18.70 90.63 15.22 87.67 13.61 83.55 C 12.57 81.10 13.33 78.45 13.48 75.92 C 12.91 73.61 10.84 71.95 10.18 69.64 C 9.79 67.27 10.77 64.90 10.40 62.53 C 10.22 60.75 9.57 58.56 11.38 57.37 Z" />
<path fill="#ffffff" opacity="1.00" d=" M 294.06 51.61 C 294.81 51.65 296.31 51.74 297.07 51.78 C 299.71 57.74 301.68 63.99 304.21 70.01 C 306.64 63.96 308.68 57.74 311.32 51.77 C 312.02 51.74 313.43 51.66 314.14 51.62 C 311.32 58.91 308.20 66.08 305.43 73.39 C 303.70 73.55 302.21 73.18 301.93 71.28 C 299.39 64.69 296.70 58.16 294.06 51.61 Z" />
<path fill="#ffffff" opacity="1.00" d=" M 87.73 55.81 C 88.30 54.74 88.88 53.67 89.46 52.60 C 94.22 52.64 98.99 52.63 103.75 52.60 C 104.25 53.65 104.74 54.71 105.24 55.76 C 99.40 55.87 93.56 55.80 87.73 55.81 Z" />
<path fill="#ffffff" opacity="1.00" d=" M 144.35 57.50 C 144.83 57.78 145.79 58.33 146.27 58.60 C 154.57 68.39 163.40 77.74 172.79 86.50 C 172.60 86.75 172.22 87.25 172.03 87.50 C 162.90 81.37 154.46 73.95 148.24 64.81 C 146.72 62.51 144.95 60.26 144.35 57.50 Z" />
<path fill="#ffffff" opacity="1.00" d=" M 96.01 69.03 C 101.75 70.00 107.63 69.14 113.00 66.96 C 113.82 67.77 114.64 68.57 115.46 69.39 C 109.83 72.48 103.36 74.07 96.95 73.08 C 90.53 72.06 83.76 71.63 77.63 74.23 C 77.01 73.30 76.40 72.37 75.82 71.42 C 81.89 67.69 89.23 67.98 96.01 69.03 Z" />
<path fill="#ffffff" opacity="1.00" d=" M 54.98 78.23 C 58.67 73.50 64.51 71.20 69.88 68.94 C 70.56 69.84 71.24 70.74 71.92 71.63 C 66.72 74.03 60.22 75.66 57.38 81.12 C 59.12 83.53 62.33 82.92 64.86 82.49 C 69.17 81.69 73.01 79.52 77.04 77.95 C 78.52 77.00 79.21 79.11 80.16 79.82 C 73.34 83.34 65.91 87.26 57.99 86.15 C 54.26 85.79 52.56 80.98 54.98 78.23 Z" />
<path fill="#ffffff" opacity="1.00" d=" M 102.86 87.38 C 109.33 83.81 113.26 77.23 117.96 71.76 C 118.83 72.38 119.70 73.00 120.56 73.62 C 116.64 78.64 112.92 83.89 108.24 88.25 C 106.12 90.12 103.12 92.24 100.21 90.80 C 97.22 89.26 96.72 85.57 96.23 82.59 C 89.56 83.22 83.31 85.90 77.54 89.15 C 77.33 88.35 76.92 86.76 76.71 85.96 C 83.92 81.78 91.91 79.01 100.22 78.17 C 100.67 81.28 99.75 85.39 102.86 87.38 Z" />
<path fill="#ffffff" opacity="1.00" d=" M 28.90 75.42 C 32.94 73.82 38.45 71.31 42.16 74.83 C 46.14 79.60 47.38 86.65 53.18 89.87 C 59.51 93.74 67.14 90.65 73.07 87.51 C 73.37 88.58 73.68 89.64 73.98 90.71 C 67.98 94.01 60.72 96.25 53.97 93.97 C 49.97 92.77 46.90 89.74 44.41 86.52 C 40.49 87.08 36.38 87.85 32.50 86.65 C 32.36 86.01 32.09 84.72 31.95 84.08 C 35.49 83.90 39.11 84.04 42.55 83.06 C 41.10 80.76 40.16 77.26 37.06 76.75 C 34.62 76.68 32.32 77.66 29.95 78.09 C 29.59 77.20 29.25 76.31 28.90 75.42 Z" />
<path fill="#ffffff" opacity="1.00" d=" M 110.04 94.03 C 114.37 87.40 119.61 80.95 126.84 77.36 C 127.88 78.05 128.93 78.74 129.98 79.42 C 122.54 82.97 117.22 89.57 113.20 96.57 C 118.44 97.18 122.79 93.82 126.73 90.88 C 127.95 95.40 123.29 97.47 119.94 98.97 C 116.92 100.46 113.52 100.27 110.26 100.15 C 99.56 105.54 87.38 106.63 75.57 106.45 C 76.24 105.43 76.13 103.17 77.83 103.16 C 82.89 102.75 88.06 103.04 93.00 101.63 C 91.29 98.61 89.19 94.01 84.90 94.84 C 78.75 96.28 73.15 99.40 67.47 102.08 C 66.98 101.44 65.99 100.17 65.50 99.53 C 71.62 95.97 78.05 92.69 84.92 90.87 C 91.03 89.73 95.22 95.84 97.06 100.84 C 101.78 99.60 107.13 98.35 110.04 94.03 Z" />
<path fill="#ffffff" opacity="1.00" d=" M 138.40 83.83 C 139.61 84.46 140.80 85.13 141.98 85.81 C 136.43 97.82 126.60 108.26 114.08 112.96 C 103.13 115.86 91.63 113.23 80.51 114.84 C 76.02 115.58 71.69 117.61 67.05 117.25 C 62.21 117.02 57.67 114.83 54.08 111.66 C 48.44 115.84 43.09 120.39 37.39 124.48 C 33.69 127.05 29.08 127.43 24.71 127.51 C 24.98 126.27 25.32 125.06 25.74 123.87 C 29.75 123.78 34.25 123.22 37.15 120.13 C 39.16 117.51 39.16 113.78 38.16 110.75 C 36.88 107.25 32.88 106.29 29.80 105.04 C 31.00 104.25 32.22 103.48 33.43 102.71 C 35.96 103.98 38.79 105.06 40.52 107.42 C 42.21 109.94 42.13 113.11 42.20 116.03 C 47.82 111.73 53.54 107.58 59.20 103.36 C 59.86 104.23 60.53 105.11 61.19 105.98 C 59.91 106.95 58.64 107.93 57.36 108.90 C 61.51 112.62 67.54 114.25 72.89 112.35 C 84.26 108.52 96.37 110.72 108.10 109.83 C 115.63 109.13 122.00 104.39 127.38 99.41 C 131.91 94.90 135.77 89.67 138.40 83.83 Z" />
<path fill="#ffffff" opacity="1.00" d=" M 233.42 98.97 C 233.91 98.97 234.90 98.97 235.39 98.97 C 235.39 103.62 235.39 108.26 235.39 112.91 C 237.80 112.91 240.20 112.91 242.61 112.92 L 242.60 114.19 C 239.54 114.19 236.48 114.19 233.42 114.19 C 233.41 109.12 233.42 104.04 233.42 98.97 Z" />
<path fill="#ffffff" opacity="1.00" d=" M 249.38 99.06 C 249.96 99.05 251.12 99.02 251.70 99.01 C 253.66 104.15 255.82 109.21 257.87 114.32 C 255.06 115.26 255.02 112.15 254.12 110.59 C 251.69 110.58 249.28 110.58 246.86 110.59 C 245.95 112.08 246.00 115.11 243.33 114.35 C 245.27 109.22 247.41 104.17 249.38 99.06 M 247.44 109.08 C 249.47 109.08 251.49 109.08 253.52 109.08 C 252.52 106.42 251.54 103.76 250.58 101.09 C 249.50 103.74 248.46 106.40 247.44 109.08 Z" />
<path fill="#ffffff" opacity="1.00" d=" M 256.75 98.97 C 260.61 98.97 264.46 98.97 268.32 98.97 L 268.36 100.28 C 266.76 100.28 265.15 100.28 263.56 100.29 C 263.56 104.92 263.55 109.55 263.56 114.19 C 263.06 114.19 262.05 114.20 261.55 114.20 C 261.54 109.56 261.55 104.93 261.55 100.29 C 259.94 100.28 258.34 100.28 256.74 100.27 L 256.75 98.97 Z" />
<path fill="#ffffff" opacity="1.00" d=" M 273.14 99.09 C 273.72 99.07 274.88 99.03 275.45 99.01 C 277.45 104.12 279.62 109.17 281.53 114.32 C 278.80 115.23 278.87 112.04 277.92 110.59 C 275.49 110.58 273.05 110.58 270.63 110.59 C 269.82 112.16 269.59 114.72 267.14 114.50 C 268.74 109.21 271.33 104.30 273.14 99.09 M 271.23 109.08 C 273.26 109.08 275.28 109.08 277.31 109.08 C 276.28 106.44 275.25 103.79 274.22 101.16 C 273.23 103.80 272.24 106.44 271.23 109.08 Z" />
<path fill="#ffffff" opacity="1.00" d=" M 284.21 98.94 C 284.91 98.97 286.31 99.03 287.02 99.06 C 288.70 103.33 290.38 107.60 292.18 111.82 C 293.96 107.60 295.66 103.34 297.34 99.08 C 298.06 99.04 299.51 98.97 300.23 98.93 C 300.22 104.01 300.23 109.10 300.22 114.19 L 298.36 114.20 C 298.36 109.83 298.36 105.47 298.36 101.10 C 296.53 105.42 294.92 109.83 293.02 114.11 C 292.59 114.13 291.73 114.18 291.30 114.21 C 289.44 110.00 287.67 105.74 286.31 101.34 C 285.95 105.35 286.18 109.38 286.03 113.40 C 285.79 114.30 284.93 114.28 284.20 114.32 C 284.22 109.19 284.21 104.07 284.21 98.94 Z" />
</g>
</svg>
