<svg width="1060" height="560" xmlns="http://www.w3.org/2000/svg" xmlns:xlink="http://www.w3.org/1999/xlink" xml:space="preserve" overflow="hidden"><defs><clipPath id="clip0"><rect x="1670" y="510" width="1060" height="560"/></clipPath><linearGradient x1="0" y1="0.0958739" x2="67.155" y2="0.0958739" gradientUnits="userSpaceOnUse" spreadMethod="pad" id="fill1"><stop offset="0" stop-color="#818CF8"/><stop offset="0.5" stop-color="#22D3EE"/><stop offset="1" stop-color="#A78BFA"/></linearGradient><linearGradient x1="106.264" y1="0.113277" x2="236.874" y2="0.113277" gradientUnits="userSpaceOnUse" spreadMethod="pad" id="fill2"><stop offset="0" stop-color="#818CF8"/><stop offset="0.5" stop-color="#22D3EE"/><stop offset="1" stop-color="#A78BFA"/></linearGradient><linearGradient x1="288.573" y1="0.776425" x2="314.689" y2="0.776425" gradientUnits="userSpaceOnUse" spreadMethod="pad" id="fill3"><stop offset="0" stop-color="#818CF8"/><stop offset="0.5" stop-color="#22D3EE"/><stop offset="1" stop-color="#A78BFA"/></linearGradient><linearGradient x1="377.294" y1="1.96723" x2="382.073" y2="1.96723" gradientUnits="userSpaceOnUse" spreadMethod="pad" id="fill4"><stop offset="0" stop-color="#818CF8"/><stop offset="0.5" stop-color="#22D3EE"/><stop offset="1" stop-color="#A78BFA"/></linearGradient><linearGradient x1="184.115" y1="5.03662" x2="231.87" y2="5.03662" gradientUnits="userSpaceOnUse" spreadMethod="pad" id="fill5"><stop offset="0" stop-color="#818CF8"/><stop offset="0.5" stop-color="#22D3EE"/><stop offset="1" stop-color="#A78BFA"/></linearGradient><linearGradient x1="123.711" y1="12.0468" x2="131.658" y2="12.0468" gradientUnits="userSpaceOnUse" spreadMethod="pad" id="fill6"><stop offset="0" stop-color="#818CF8"/><stop offset="0.5" stop-color="#22D3EE"/><stop offset="1" stop-color="#A78BFA"/></linearGradient><linearGradient x1="321.577" y1="12.0532" x2="343.454" y2="12.0532" gradientUnits="userSpaceOnUse" spreadMethod="pad" id="fill7"><stop offset="0" stop-color="#818CF8"/><stop offset="0.5" stop-color="#22D3EE"/><stop offset="1" stop-color="#A78BFA"/></linearGradient><linearGradient x1="349.656" y1="11.7204" x2="371.285" y2="11.7204" gradientUnits="userSpaceOnUse" spreadMethod="pad" id="fill8"><stop offset="0" stop-color="#818CF8"/><stop offset="0.5" stop-color="#22D3EE"/><stop offset="1" stop-color="#A78BFA"/></linearGradient><linearGradient x1="378.015" y1="12.001" x2="381.385" y2="12.001" gradientUnits="userSpaceOnUse" spreadMethod="pad" id="fill9"><stop offset="0" stop-color="#818CF8"/><stop offset="0.5" stop-color="#22D3EE"/><stop offset="1" stop-color="#A78BFA"/></linearGradient><linearGradient x1="389.936" y1="11.7383" x2="411.954" y2="11.7383" gradientUnits="userSpaceOnUse" spreadMethod="pad" id="fill10"><stop offset="0" stop-color="#818CF8"/><stop offset="0.5" stop-color="#22D3EE"/><stop offset="1" stop-color="#A78BFA"/></linearGradient><linearGradient x1="418.449" y1="11.6647" x2="442.388" y2="11.6647" gradientUnits="userSpaceOnUse" spreadMethod="pad" id="fill11"><stop offset="0" stop-color="#818CF8"/><stop offset="0.5" stop-color="#22D3EE"/><stop offset="1" stop-color="#A78BFA"/></linearGradient><linearGradient x1="446.737" y1="11.7039" x2="468.393" y2="11.7039" gradientUnits="userSpaceOnUse" spreadMethod="pad" id="fill12"><stop offset="0" stop-color="#818CF8"/><stop offset="0.5" stop-color="#22D3EE"/><stop offset="1" stop-color="#A78BFA"/></linearGradient><linearGradient x1="472.799" y1="11.699" x2="494.537" y2="11.699" gradientUnits="userSpaceOnUse" spreadMethod="pad" id="fill13"><stop offset="0" stop-color="#818CF8"/><stop offset="0.5" stop-color="#22D3EE"/><stop offset="1" stop-color="#A78BFA"/></linearGradient><linearGradient x1="14.5406" y1="13.6868" x2="30.3064" y2="13.6868" gradientUnits="userSpaceOnUse" spreadMethod="pad" id="fill14"><stop offset="0" stop-color="#818CF8"/><stop offset="0.5" stop-color="#22D3EE"/><stop offset="1" stop-color="#A78BFA"/></linearGradient><linearGradient x1="42.9165" y1="13.6001" x2="54.5243" y2="13.6001" gradientUnits="userSpaceOnUse" spreadMethod="pad" id="fill15"><stop offset="0" stop-color="#818CF8"/><stop offset="0.5" stop-color="#22D3EE"/><stop offset="1" stop-color="#A78BFA"/></linearGradient><linearGradient x1="41.6666" y1="16.0725" x2="104.185" y2="16.0725" gradientUnits="userSpaceOnUse" spreadMethod="pad" id="fill16"><stop offset="0" stop-color="#818CF8"/><stop offset="0.5" stop-color="#22D3EE"/><stop offset="1" stop-color="#A78BFA"/></linearGradient><linearGradient x1="81.3324" y1="24.624" x2="88.5679" y2="24.624" gradientUnits="userSpaceOnUse" spreadMethod="pad" id="fill17"><stop offset="0" stop-color="#818CF8"/><stop offset="0.5" stop-color="#22D3EE"/><stop offset="1" stop-color="#A78BFA"/></linearGradient><linearGradient x1="195.587" y1="28.9327" x2="236.944" y2="28.9327" gradientUnits="userSpaceOnUse" spreadMethod="pad" id="fill18"><stop offset="0" stop-color="#818CF8"/><stop offset="0.5" stop-color="#22D3EE"/><stop offset="1" stop-color="#A78BFA"/></linearGradient><linearGradient x1="36.5062" y1="33.2764" x2="49.4629" y2="33.2764" gradientUnits="userSpaceOnUse" spreadMethod="pad" id="fill19"><stop offset="0" stop-color="#818CF8"/><stop offset="0.5" stop-color="#22D3EE"/><stop offset="1" stop-color="#A78BFA"/></linearGradient><linearGradient x1="14.8005" y1="41.0726" x2="31.8037" y2="41.0726" gradientUnits="userSpaceOnUse" spreadMethod="pad" id="fill20"><stop offset="0" stop-color="#818CF8"/><stop offset="0.5" stop-color="#22D3EE"/><stop offset="1" stop-color="#A78BFA"/></linearGradient><linearGradient x1="64.9316" y1="41.8275" x2="113.182" y2="41.8275" gradientUnits="userSpaceOnUse" spreadMethod="pad" id="fill21"><stop offset="0" stop-color="#818CF8"/><stop offset="0.5" stop-color="#22D3EE"/><stop offset="1" stop-color="#A78BFA"/></linearGradient><linearGradient x1="91.3055" y1="50.5443" x2="97.6882" y2="50.5443" gradientUnits="userSpaceOnUse" spreadMethod="pad" id="fill22"><stop offset="0" stop-color="#818CF8"/><stop offset="0.5" stop-color="#22D3EE"/><stop offset="1" stop-color="#A78BFA"/></linearGradient><linearGradient x1="285.986" y1="51.6726" x2="314.108" y2="51.6726" gradientUnits="userSpaceOnUse" spreadMethod="pad" id="fill23"><stop offset="0" stop-color="#818CF8"/><stop offset="0.5" stop-color="#22D3EE"/><stop offset="1" stop-color="#A78BFA"/></linearGradient><linearGradient x1="392.811" y1="53.5836" x2="397.658" y2="53.5836" gradientUnits="userSpaceOnUse" spreadMethod="pad" id="fill24"><stop offset="0" stop-color="#818CF8"/><stop offset="0.5" stop-color="#22D3EE"/><stop offset="1" stop-color="#A78BFA"/></linearGradient><linearGradient x1="319.331" y1="63.1951" x2="343.146" y2="63.1951" gradientUnits="userSpaceOnUse" spreadMethod="pad" id="fill25"><stop offset="0" stop-color="#818CF8"/><stop offset="0.5" stop-color="#22D3EE"/><stop offset="1" stop-color="#A78BFA"/></linearGradient><linearGradient x1="349.786" y1="63.1874" x2="362.996" y2="63.1874" gradientUnits="userSpaceOnUse" spreadMethod="pad" id="fill26"><stop offset="0" stop-color="#818CF8"/><stop offset="0.5" stop-color="#22D3EE"/><stop offset="1" stop-color="#A78BFA"/></linearGradient><linearGradient x1="393.513" y1="63.9664" x2="397.089" y2="63.9664" gradientUnits="userSpaceOnUse" spreadMethod="pad" id="fill27"><stop offset="0" stop-color="#818CF8"/><stop offset="0.5" stop-color="#22D3EE"/><stop offset="1" stop-color="#A78BFA"/></linearGradient><linearGradient x1="403.639" y1="63.204" x2="427.16" y2="63.204" gradientUnits="userSpaceOnUse" spreadMethod="pad" id="fill28"><stop offset="0" stop-color="#818CF8"/><stop offset="0.5" stop-color="#22D3EE"/><stop offset="1" stop-color="#A78BFA"/></linearGradient><linearGradient x1="430.636" y1="63.2117" x2="454.559" y2="63.2117" gradientUnits="userSpaceOnUse" spreadMethod="pad" id="fill29"><stop offset="0" stop-color="#818CF8"/><stop offset="0.5" stop-color="#22D3EE"/><stop offset="1" stop-color="#A78BFA"/></linearGradient><linearGradient x1="458.853" y1="63.1894" x2="480.551" y2="63.1894" gradientUnits="userSpaceOnUse" spreadMethod="pad" id="fill30"><stop offset="0" stop-color="#818CF8"/><stop offset="0.5" stop-color="#22D3EE"/><stop offset="1" stop-color="#A78BFA"/></linearGradient><linearGradient x1="0" y1="64.1273" x2="67.3076" y2="64.1273" gradientUnits="userSpaceOnUse" spreadMethod="pad" id="fill31"><stop offset="0" stop-color="#818CF8"/><stop offset="0.5" stop-color="#22D3EE"/><stop offset="1" stop-color="#A78BFA"/></linearGradient><linearGradient x1="363.899" y1="63.8674" x2="388.748" y2="63.8674" gradientUnits="userSpaceOnUse" spreadMethod="pad" id="fill32"><stop offset="0" stop-color="#818CF8"/><stop offset="0.5" stop-color="#22D3EE"/><stop offset="1" stop-color="#A78BFA"/></linearGradient><linearGradient x1="108.566" y1="65.0925" x2="130.234" y2="65.0925" gradientUnits="userSpaceOnUse" spreadMethod="pad" id="fill33"><stop offset="0" stop-color="#818CF8"/><stop offset="0.5" stop-color="#22D3EE"/><stop offset="1" stop-color="#A78BFA"/></linearGradient><linearGradient x1="178.633" y1="71.1562" x2="213.828" y2="71.1562" gradientUnits="userSpaceOnUse" spreadMethod="pad" id="fill34"><stop offset="0" stop-color="#818CF8"/><stop offset="0.5" stop-color="#22D3EE"/><stop offset="1" stop-color="#A78BFA"/></linearGradient><linearGradient x1="93.8272" y1="82.863" x2="142.882" y2="82.863" gradientUnits="userSpaceOnUse" spreadMethod="pad" id="fill35"><stop offset="0" stop-color="#818CF8"/><stop offset="0.5" stop-color="#22D3EE"/><stop offset="1" stop-color="#A78BFA"/></linearGradient><linearGradient x1="66.6443" y1="85.3132" x2="99.198" y2="85.3132" gradientUnits="userSpaceOnUse" spreadMethod="pad" id="fill36"><stop offset="0" stop-color="#818CF8"/><stop offset="0.5" stop-color="#22D3EE"/><stop offset="1" stop-color="#A78BFA"/></linearGradient><linearGradient x1="94.9286" y1="88.803" x2="149.193" y2="88.803" gradientUnits="userSpaceOnUse" spreadMethod="pad" id="fill37"><stop offset="0" stop-color="#818CF8"/><stop offset="0.5" stop-color="#22D3EE"/><stop offset="1" stop-color="#A78BFA"/></linearGradient><linearGradient x1="35.7637" y1="90.3966" x2="91.5502" y2="90.3966" gradientUnits="userSpaceOnUse" spreadMethod="pad" id="fill38"><stop offset="0" stop-color="#818CF8"/><stop offset="0.5" stop-color="#22D3EE"/><stop offset="1" stop-color="#A78BFA"/></linearGradient><linearGradient x1="81.0562" y1="95.733" x2="160.85" y2="95.733" gradientUnits="userSpaceOnUse" spreadMethod="pad" id="fill39"><stop offset="0" stop-color="#818CF8"/><stop offset="0.5" stop-color="#22D3EE"/><stop offset="1" stop-color="#A78BFA"/></linearGradient><linearGradient x1="30.5786" y1="103.74" x2="175.7" y2="103.74" gradientUnits="userSpaceOnUse" spreadMethod="pad" id="fill40"><stop offset="0" stop-color="#818CF8"/><stop offset="0.5" stop-color="#22D3EE"/><stop offset="1" stop-color="#A78BFA"/></linearGradient><linearGradient x1="288.852" y1="122.475" x2="300.23" y2="122.475" gradientUnits="userSpaceOnUse" spreadMethod="pad" id="fill41"><stop offset="0" stop-color="#818CF8"/><stop offset="0.5" stop-color="#22D3EE"/><stop offset="1" stop-color="#A78BFA"/></linearGradient><linearGradient x1="301.121" y1="122.525" x2="319.114" y2="122.525" gradientUnits="userSpaceOnUse" spreadMethod="pad" id="fill42"><stop offset="0" stop-color="#818CF8"/><stop offset="0.5" stop-color="#22D3EE"/><stop offset="1" stop-color="#A78BFA"/></linearGradient><linearGradient x1="317.716" y1="122.475" x2="332.095" y2="122.475" gradientUnits="userSpaceOnUse" spreadMethod="pad" id="fill43"><stop offset="0" stop-color="#818CF8"/><stop offset="0.5" stop-color="#22D3EE"/><stop offset="1" stop-color="#A78BFA"/></linearGradient><linearGradient x1="330.586" y1="122.525" x2="348.393" y2="122.525" gradientUnits="userSpaceOnUse" spreadMethod="pad" id="fill44"><stop offset="0" stop-color="#818CF8"/><stop offset="0.5" stop-color="#22D3EE"/><stop offset="1" stop-color="#A78BFA"/></linearGradient><linearGradient x1="351.698" y1="122.426" x2="371.535" y2="122.426" gradientUnits="userSpaceOnUse" spreadMethod="pad" id="fill45"><stop offset="0" stop-color="#818CF8"/><stop offset="0.5" stop-color="#22D3EE"/><stop offset="1" stop-color="#A78BFA"/></linearGradient></defs><g clip-path="url(#clip0)" transform="translate(-1670 -510)"><g><g><g><path d="M428.629 0 588.562 0C607.421 0.198511 626.29 0.13234 645.16 0.452163 647.013 0.463192 648.854 0.738901 650.663 1.21312 655.129 1.79762 659.585 2.5255 664.051 3.09897 674.043 5.70167 684.013 8.94401 692.935 14.2266 707.007 21.8913 718.598 33.5483 727.685 46.639 734.975 57.8218 739.662 70.4823 742.617 83.4407 744.139 93.0574 743.82 102.818 744.029 112.511 744.084 122.779 744.261 133.057 743.831 143.314 742.981 152.677 740.368 161.775 737.236 170.609 726.439 199.106 701.879 221.725 672.808 230.714 671.617 230.923 670.426 231.144 669.235 231.353L668.562 231.872C658.692 233.967 648.667 235.323 638.576 235.301 573.133 235.654 507.702 235.39 442.271 235.213 429.842 234.408 417.369 234.948 404.94 234.232 382.321 230.625 360.948 219.531 345.243 202.801 331.833 188.1 323.032 169.506 319.393 149.986 318.301 139.729 318.257 129.418 318.334 119.106 318.499 104.328 317.352 89.1313 322.117 74.8937 326.44 59.4098 334.59 45.0619 345.464 33.2616 361.874 15.3736 385.089 4.06947 409.197 1.51089 415.582-0.088227 422.188 1.08078 428.629 0M403.462 44.9406C402.072 45.459 400.683 45.9552 399.304 46.4736 384.35 52.1091 371.623 63.6337 365.26 78.3566 363.848 81.5438 362.58 84.7971 361.521 88.1167 360.584 96.9945 361.113 105.928 360.771 114.838 360.109 117.298 360.407 119.867 360.374 122.393 360.429 130.83 359.966 139.41 361.764 147.692 363.253 152.28 365.083 156.746 366.936 161.191 371.303 169.903 378.097 177.513 386.214 182.872 392.875 187.681 400.837 190.284 408.789 192.048 423.512 193.504 438.389 192.048 453.112 193.151 459.376 192.423 465.64 193.658 471.882 192.875 475.94 192.842 480.032 192.533 484.068 193.118 488.557 193.228 493.056 193.239 497.545 193.107 498.968 192.864 500.401 192.743 501.846 192.743 552.588 192.809 603.329 192.655 654.071 192.655 656.056 192.688 657.831 191.717 659.618 190.989 661.416 190.217 663.224 189.423 665.099 188.795 681.035 182.895 693.232 169.032 699 153.239 701.327 146.92 702.033 140.237 702.64 133.587 702.948 126.187 702.794 118.765 702.761 111.353 701.79 101.296 702.993 90.7194 698.405 81.3453 697.82 79.9888 697.225 78.6544 696.717 77.2758 693.563 69.3905 687.454 63.1926 681.432 57.4137 677.936 54.6456 674.716 51.3371 670.459 49.749 667.194 48.1278 663.886 46.6169 660.489 45.3046 657.986 44.5546 655.482 43.6503 652.836 43.6503 636.679 43.0217 620.5 43.2864 604.333 43.1981 600.727 43.0768 597.054 43.5841 593.503 42.7791 584.614 42.6357 575.736 42.7791 566.847 42.7019 565.028 42.8452 563.02 42.3269 561.355 43.2092 560.881 43.0878 559.944 42.8563 559.48 42.7349 529.858 42.7349 500.225 42.6577 470.603 42.768L469.809 43.54 469.015 42.768C464.438 42.6357 459.85 42.7019 455.273 42.8011 445.513 43.7054 435.61 42.9665 425.794 43.2533 419.552 43.551 413.112 42.6136 407.046 44.2899 405.855 44.5436 404.653 44.7531 403.462 44.9406Z" fill="#FFFFFF" transform="matrix(1.00121 0 0 1 1670 759)"/><path d="M7.73089 2.20567C9.87039 1.53294 12.1422 1.66528 14.3589 1.6322 71.6954 1.31238 129.021 1.54397 186.357 1.52192 206.98 1.66528 227.615 1.41163 248.238 2.02922 250.752 2.62475 253.366 2.66887 255.913 3.09897 261.207 4.98482 266.28 7.40004 271.375 9.716 275.974 12.2856 280.374 15.5279 283.694 19.6415 286.473 23.1927 289.517 26.6666 291.094 30.9787 295.593 40.2536 297.568 50.4989 297.612 60.7774 297.943 62.178 298.097 63.6006 298.086 65.0453 298.317 102.211 298.549 139.377 297.909 176.531 297.115 185.53 296.189 194.706 292.439 203.065 291.921 204.08 291.469 205.117 291.072 206.175 285.547 217.81 275.092 227.063 262.707 230.769 253.057 234.176 242.801 234.463 232.688 234.364 161.4 234.673 90.1018 234.827 18.8254 234.353 13.0466 234.066 5.62447 234.959 1.96305 229.39 1.22415 224.67 1.57706 219.851 1.43369 215.086 1.33443 169.638 1.19106 124.19 1.61014 78.7426 6.84862 83.1429 12.6275 86.8484 17.7998 91.348 24.6043 96.2446 31.0228 101.682 37.7832 106.644 40.7167 108.861 43.4738 111.309 46.5508 113.328 48.2271 114.497 49.7931 115.82 51.1496 117.364 52.098 137.127 50.521 156.978 52.5943 176.675 53.8515 179.123 55.5499 181.306 58.0864 182.531 60.3803 182.663 62.7404 182.553 64.9681 183.225 87.7638 183.821 110.581 183.501 133.377 183.589 164.279 183.534 195.18 183.722 226.082 183.435 227.879 183.446 229.699 183.336 231.475 182.961 233.393 182.74 235.301 182.531 237.231 182.332 239.161 180.799 242.062 179.487 242.117 176.652 242.404 168.877 243.154 161.125 242.9 153.327 242.668 136.388 243.429 119.393 242.382 102.487 242.492 101.979 242.701 100.976 242.812 100.468 242.668 98.6157 243.451 96.4321 242.172 94.844 243.584 92.4288 242.558 89.3408 242.922 86.6499L242.304 86.4955C242.382 77.8713 242.492 69.2251 241.951 60.6119 242.04 57.2593 238.742 55.3624 236.36 53.653 230.493 52.5722 224.405 53.8736 218.527 52.7928 172.561 52.3517 126.584 52.6715 80.6174 52.484 54.403 52.1201 28.1665 52.4289 1.95202 52.1642 1.58809 51.9105 0.860213 51.4143 0.496277 51.1606 0.926383 45.9442 0.0771986 40.5954 1.26826 35.4783 1.56603 26.5453 1.21312 17.5903 1.77557 8.6683 2.11745 5.44802 4.95174 3.36365 7.73089 2.20567Z" fill="#FFFFFF" transform="matrix(1.00121 0 0 1 1670 759)"/><path d="M777.589 2.3711C779.607 1.35649 781.945 1.76454 784.128 1.6322 868.683 1.33443 953.237 1.36752 1037.8 1.64323 1041.78 1.79762 1045.8 1.6322 1049.78 2.2167 1053.03 2.51447 1054.64 5.49213 1056.36 7.8522 1058.87 18.6159 1057.41 29.931 1057.71 40.9153 1058.22 46.3302 1054.1 51.3922 1048.64 51.7892 1034.38 52.6605 1020.04 52.098 1005.73 52.3296 984.569 52.2414 963.406 52.7487 942.242 52.5171 941.911 101.913 942.264 151.331 942.066 200.727 942.044 203.617 942.253 206.528 941.724 209.385 941.58 214.976 941.558 220.567 941.051 226.137 939.419 229.159 937.125 231.717 935.206 234.529 922.358 234.629 909.499 234.893 896.651 234.441 891.357 234.441 887.398 229.07 887.387 224.108 886.824 208.205 887.023 192.269 886.582 176.388 886.946 174.579 887.078 172.715 886.461 170.94 886.858 169.451 886.979 167.951 886.813 166.418 886.075 160.209 886.582 153.945 886.88 147.725 886.097 140.413 886.549 133.057 886.439 125.712 886.35 101.318 886.604 76.9008 886.306 52.5061 861.459 52.1973 836.59 52.3737 811.732 52.2414 802.204 51.9988 792.598 52.6825 783.125 51.679 780.301 51.4915 777.467 51.3702 774.655 51.1827 771.413 48.7454 770.001 44.7311 770.1 40.7829 770.012 30.7471 769.582 20.6561 770.563 10.6534 771.28 9.19766 771.997 7.75295 772.681 6.27514 774.037 4.65397 775.758 3.4188 777.589 2.3711Z" fill="#FFFFFF" transform="matrix(1.00121 0 0 1 1670 759)"/><path d="M72.7431 273.062C74.2871 272.985 75.8201 272.919 77.364 272.864 81.9187 281.036 84.8964 289.914 88.8887 298.351 90.3885 302.376 93.1125 306.556 91.8222 311L90.2452 311C87.0469 307.901 85.4478 303.655 83.9039 299.586 77.9926 299.442 72.0814 299.42 66.1813 299.597 64.5601 303.843 63.1926 310.471 57.7666 310.857 58.1305 305.85 60.7994 301.472 62.4868 296.851 65.4203 288.723 69.1589 280.926 72.7431 273.062M74.6621 280.363C73.6695 282.117 72.7762 283.925 71.8719 285.734 71.3536 287.113 70.8132 288.469 70.2287 289.837 69.8206 291.502 69.3685 293.145 68.9604 294.81 73.096 295.053 77.2427 295.042 81.3894 294.899 80.6725 291.7 79.3712 288.701 78.0919 285.723 77.4302 284.113 76.7906 282.503 76.2612 280.86 75.8531 280.738 75.0591 280.496 74.6621 280.363Z" fill="#FFFFFF" transform="matrix(1.00121 0 0 1 1670 759)"/><path d="M114.938 272.831C124.929 272.864 134.932 272.732 144.924 272.908 144.836 274.529 144.968 277.617 142.42 277.253 139.178 277.452 135.925 277.33 132.682 277.375 132.44 280.804 133.002 284.311 132.186 287.697 131.767 289.429 132.021 290.951 132.925 292.241 131.436 293.641 132.318 295.924 132.065 297.722 132.12 301.593 131.932 305.464 131.943 309.335 130.808 309.324 128.536 309.302 127.4 309.291 127.289 298.681 127.201 288.072 127.168 277.463 123.165 277.308 119.162 277.408 115.169 277.264 115.114 276.15 114.993 273.934 114.938 272.831Z" fill="#FFFFFF" transform="matrix(1.00121 0 0 1 1670 759)"/><path d="M181.67 272.831C183.225 272.897 184.78 272.974 186.346 273.074 189.445 279.944 193.008 286.616 195.621 293.708 197.706 299.321 201.632 304.571 201.257 310.824 200.595 310.713 199.272 310.493 198.61 310.383 196.084 307.173 194.496 303.368 192.997 299.608 187.096 299.409 181.185 299.453 175.285 299.575 173.939 303.611 172.164 307.515 169.716 311L167.036 311C166.981 308.684 167.389 306.412 168.282 304.273 172.583 293.73 177.005 283.231 181.67 272.831M183.821 280.363C182.972 282.172 182.067 283.959 181.174 285.767 180.678 287.157 180.104 288.535 179.542 289.903 178.957 291.535 178.296 293.123 177.866 294.81 181.714 295.053 185.585 295.02 189.445 294.921 189.467 293.233 189.236 291.557 188.85 289.914 188.309 288.535 187.846 287.135 187.383 285.734 186.799 284.058 186.159 282.404 185.574 280.738 185.133 280.639 184.262 280.452 183.821 280.363Z" fill="#FFFFFF" transform="matrix(1.00121 0 0 1 1670 759)"/><path d="M378.527 272.787C387.416 272.886 396.294 272.776 405.182 272.842 405.193 273.967 405.193 276.228 405.204 277.353 397.849 277.716 390.437 277.154 383.126 278.136 383.07 281.643 382.971 285.139 382.927 288.646 388.221 288.668 393.514 288.8 398.775 289.484 398.863 290.565 398.951 291.645 399.051 292.737 393.812 294.292 388.32 293.641 382.938 293.884 382.949 297.579 383.059 301.273 383.192 304.968 390.096 305.177 396.999 304.957 403.892 305.32 406.407 306.225 404.091 309.147 404.013 311L378.99 311C378.516 298.273 378.803 285.525 378.527 272.787Z" fill="#FFFFFF" transform="matrix(1.00121 0 0 1 1670 759)"/><path d="M503.853 274.209C504.769 272.015 508.772 272.246 509.643 274.441 515.168 285.183 519.514 296.465 524.19 307.581 524.167 308.441 524.112 310.151 524.09 311L521.576 311C518.951 307.493 517.12 303.49 515.466 299.453 509.709 299.531 503.952 299.475 498.196 299.497 496.597 303.523 494.975 307.592 492.229 311L490.244 311C489.252 304.736 493.255 299.277 495.45 293.708 497.975 287.091 500.953 280.661 503.853 274.209M506.125 280.871C504.482 284.565 503.158 288.403 501.416 292.053 501.262 292.759 500.931 294.182 500.776 294.899 504.647 295.042 508.529 295.053 512.4 294.81 512.444 293.2 512.191 291.656 511.639 290.156 511.066 288.215 510.426 286.285 509.842 284.356 509.191 283.043 508.562 281.731 507.923 280.44 507.471 280.551 506.566 280.76 506.125 280.871Z" fill="#FFFFFF" transform="matrix(1.00121 0 0 1 1670 759)"/><path d="M602.987 273.062C604.3 273.04 605.612 273.029 606.935 273.029 608.49 282.293 607.884 291.711 608.06 301.053 607.961 304.196 608.557 307.78 606.086 310.217L605.954 311 605.469 311C601.973 308.375 602.745 303.754 602.557 299.961 602.601 290.995 602.237 282.007 602.987 273.062Z" fill="#FFFFFF" transform="matrix(1.00121 0 0 1 1670 759)"/><path d="M903.852 272.853C912.719 272.776 921.597 272.875 930.475 272.798 930.486 274.32 930.497 275.831 930.53 277.364 923.428 277.463 916.336 277.683 909.245 277.65 909.003 281.246 908.705 284.841 908.341 288.425 913.756 288.811 919.204 288.8 924.608 289.539 924.553 290.576 924.542 291.612 924.519 292.66 923.681 292.969 922.854 293.277 922.038 293.597 917.472 293.785 912.918 293.796 908.363 293.961 908.716 297.623 909.014 301.295 909.091 304.979 915.609 305.464 922.159 305.177 928.699 305.32 931.732 305.298 930.177 309.147 930.596 311L930.188 311C929.868 310.857 929.218 310.57 928.887 310.427 920.869 310.724 912.829 310.482 904.801 310.636 903.279 298.108 904.338 285.436 903.852 272.853Z" fill="#FFFFFF" transform="matrix(1.00121 0 0 1 1670 759)"/><path d="M971.467 273.062C973.364 273.14 976.276 272.015 977.158 274.43 980.466 281.808 983.852 289.175 986.697 296.762 988.407 301.405 991.384 305.85 990.999 311L988.241 311C985.936 307.394 984.205 303.468 982.606 299.509 977.378 299.442 972.162 299.751 966.946 299.718 966.372 299.95 965.236 300.402 964.663 300.622 963.714 304.372 961.906 307.802 959.777 311L956.811 311C957.439 303.479 961.586 296.961 964.078 289.98 966.085 284.146 969.041 278.72 971.467 273.062M972.669 281.731C972.305 283.01 971.831 284.256 971.247 285.447 970.133 288.227 969.482 291.27 967.541 293.63 970.982 296.321 975.967 294.491 980.069 294.81 979.816 293.939 979.319 292.197 979.077 291.325 978.459 289.748 977.864 288.171 977.345 286.583 975.989 284.775 975.746 280.683 972.669 281.731Z" fill="#FFFFFF" transform="matrix(1.00121 0 0 1 1670 759)"/><path d="M1019.26 272.677C1021.21 272.941 1023.63 272.467 1024.99 274.287 1028.61 278.136 1032.18 282.018 1035.54 286.098 1036.09 286.153 1037.19 286.263 1037.74 286.319 1039.51 284.201 1041.32 282.106 1043.11 279.977 1046.25 276.922 1048.86 272.445 1053.88 272.599 1053.92 283.55 1053.84 294.502 1053.71 305.453 1053.83 307.394 1053.21 309.225 1052.48 310.989 1050.19 310.636 1050.41 308.254 1050.27 306.622 1049.86 298.604 1049.65 290.576 1049.05 282.569 1048.77 282.812 1048.19 283.319 1047.9 283.561 1044.07 286.727 1040.79 290.509 1037.76 294.424 1037.22 294.259 1036.12 293.928 1035.58 293.763 1032.1 289.782 1028.53 285.811 1024.22 282.723 1022.84 291.888 1023.76 301.229 1022.45 310.36L1019.93 310.46C1019.13 297.876 1019.51 285.26 1019.26 272.677Z" fill="#FFFFFF" transform="matrix(1.00121 0 0 1 1670 759)"/><path d="M0 272.831C6.09869 272.908 12.2525 272.522 18.3181 273.338 22.1009 274.375 25.4976 276.691 28.2106 279.492 32.1146 284.719 32.8866 291.667 31.1882 297.865 30.1295 299.872 29.148 301.935 27.8466 303.81 24.2293 307.25 19.4982 309.158 14.9434 311L5.93326 311C4.19078 310.868 2.45933 310.647 0.716844 310.438 0.297766 307.603 0.0441135 304.747 0 301.891L0 272.831M4.75323 278.477C4.665 287.3 4.75323 296.134 4.88557 304.957 10.8188 304.626 18.285 306.765 22.8177 301.747 29.6332 295.549 27.99 283.231 20.1488 278.555 18.9026 278.389 17.6675 278.213 16.4212 278.036 12.6165 277.286 8.39259 276.801 4.75323 278.477Z" fill="#FFFFFF" transform="matrix(1.00121 0 0 1 1670 759)"/><path d="M256.586 285.491C258.957 280.143 262.497 273.912 268.96 273.217 274.209 272.93 280.11 272.224 284.664 275.478 292.439 280.165 294.458 290.973 291.436 299.034 289.065 305.056 282.569 307.239 277.871 311L274.86 311C273.294 310.757 271.783 310.272 270.316 309.743 265.993 307.791 261.141 305.861 258.737 301.461 255.538 296.773 255.858 290.851 256.586 285.491M265.188 301.681C268.607 305.894 274.463 305.287 279.271 304.835 281.973 303.512 284.245 301.56 285.966 299.1 289.076 294.127 289.329 287.223 285.183 282.756 282.271 278.08 276.283 276.669 271.133 277.628 260.479 279.525 257.59 294.81 265.188 301.681Z" fill="#FFFFFF" transform="matrix(1.00121 0 0 1 1670 759)"/><path d="M321.587 272.831C328.061 272.853 334.568 272.621 341.03 273.305 344.934 274.265 348.375 277.264 349.985 280.937 350.857 285.9 350.349 292.086 345.365 294.711 339.409 297.733 332.395 296.575 325.944 296.994 325.48 301.383 327.256 306.545 324.565 310.338L325.194 311 322.911 311C320.54 298.439 322.017 285.536 321.587 272.831M325.988 278.632C325.811 282.988 325.955 287.344 325.877 291.7 329.142 293.024 332.858 292.594 336.266 292.12 338.152 291.899 340.104 292.009 341.935 291.403 343.787 290.542 344.537 288.491 345.695 286.958 345.541 284.642 346.247 281.764 344.173 280.088 342.795 278.533 340.622 278.301 338.77 277.683 334.568 277.65 329.792 276.316 325.988 278.632Z" fill="#FFFFFF" transform="matrix(1.00121 0 0 1 1670 759)"/><path d="M434.044 272.82C440.506 272.875 446.991 272.61 453.443 273.25 458.571 274.022 462.927 278.036 463.467 283.297 463.489 284.201 463.545 286.01 463.567 286.914 462.398 290.851 459.166 293.476 455.637 295.274 457.622 300.071 461.383 303.909 462.894 308.938 462.464 309.445 461.592 310.482 461.151 311L459.585 311C455.759 306.445 453.299 300.964 450.013 296.046 446.142 295.77 442.26 295.803 438.4 295.946 438.433 300.986 438.797 306.126 437.242 311L435.169 311C434.463 308.861 434.077 306.644 434.121 304.394 433.988 293.873 434.121 283.341 434.044 272.82M438.4 278.599C438.345 282.9 438.267 287.201 438.433 291.502 443.881 291.524 449.362 291.436 454.755 290.509 457.181 289.473 458.174 286.804 459.288 284.609 458.824 283.804 458.361 282.999 457.909 282.194 457.104 280.749 455.99 279.525 454.777 278.422 449.439 277.672 443.495 276.294 438.4 278.599Z" fill="#FFFFFF" transform="matrix(1.00121 0 0 1 1670 759)"/><path d="M546.301 277.231C546.257 275.742 546.235 274.243 546.246 272.765 555.389 273.184 564.553 272.963 573.718 273.217 574.402 273.493 575.78 274.055 576.464 274.331 575.041 279.834 567.255 275.467 564.278 278.643 563.759 288.943 563.969 299.255 563.848 309.566 562.182 309.533 560.517 309.489 558.863 309.434 558.896 299.023 558.719 288.624 558.741 278.213 554.694 277.099 550.426 277.893 546.301 277.231Z" fill="#FFFFFF" transform="matrix(1.00121 0 0 1 1670 759)"/><path d="M644.222 275.897C648.733 271.882 655.163 272.864 660.699 273.173 663.368 274.507 666.202 275.753 668.341 277.893 675.025 285.569 674.65 298.461 667.194 305.486 664.57 307.945 660.39 307.989 658.228 311L654.556 311C653.299 310.768 652.052 310.515 650.817 310.25 646.715 307.692 641.388 306.181 639.392 301.306 634.098 293.145 636.304 281.543 644.222 275.897M647.608 279.205C645.645 280.871 643.869 282.779 642.59 285.039 640.66 287.874 641.509 291.469 641.553 294.656 642.259 299.409 646.439 302.354 650.233 304.681 653.332 305.453 656.574 305.089 659.717 304.791 665.915 301.858 670.161 294.91 668.264 287.995 667.856 284.025 664.647 281.234 661.791 278.819 658.625 277.231 654.997 277.452 651.567 277.595 650.233 278.113 648.92 278.643 647.608 279.205Z" fill="#FFFFFF" transform="matrix(1.00121 0 0 1 1670 759)"/><path d="M701.912 272.798C702.97 272.809 705.077 272.853 706.136 272.875 713.613 281.124 719.656 290.553 726.659 299.2 727.112 299.321 728.016 299.575 728.468 299.696 728.369 290.719 729.45 281.775 729.108 272.798 730.078 272.787 732.019 272.776 732.99 272.776 732.89 283.33 732.924 293.873 732.791 304.427 732.835 306.677 732.251 308.861 731.622 311L731.148 311C729.008 309.908 727.453 308.056 725.954 306.258 720.572 299.509 715.631 292.417 710.238 285.679 709.389 284.411 708.044 283.672 706.786 282.944 705.584 292.263 707.25 301.802 705.22 311L703.323 311C702.772 309.599 702.408 308.155 702.232 306.677 701.868 295.384 701.879 284.091 701.912 272.798Z" fill="#FFFFFF" transform="matrix(1.00121 0 0 1 1670 759)"/><path d="M765.424 287.488C761.244 282.536 765.005 274.904 770.663 273.074 774.82 272.643 779.011 272.665 783.18 273.118 787.602 274.651 792.389 278.367 791.374 283.639 790.392 283.661 788.407 283.705 787.415 283.727 786.091 281.367 784.9 278.323 781.923 277.728 778.228 277.099 774.214 277.044 770.773 278.698 768.325 279.812 769.03 282.668 769.097 284.775 775.603 287.741 782.695 289.274 789.069 292.572 792.653 294.325 793.238 299.255 792.267 302.696 790.624 304.626 789.08 306.754 786.93 308.144 784.768 308.861 782.143 308.872 780.776 311L777.963 311C774.004 311.077 770.74 308.629 767.475 306.765 764.432 305.001 763.351 301.45 762.314 298.328 763.825 298.273 765.347 298.229 766.88 298.207 768.314 301.339 770.63 304.46 774.313 304.923 778.493 305.376 783.797 306.07 786.731 302.288 787.944 299.839 787.095 296.586 784.636 295.274 778.504 292.053 770.354 292.914 765.424 287.488Z" fill="#FFFFFF" transform="matrix(1.00121 0 0 1 1670 759)"/><path d="M847.475 272.985C857.379 273.04 867.282 272.908 877.197 273.051 877.053 273.967 876.778 275.786 876.645 276.702 873.028 278.036 868.892 277.132 865.066 277.452 865.176 288.149 864.327 298.77 864.227 309.456 863.158 309.412 861.018 309.335 859.948 309.291 859.816 298.681 859.794 288.061 859.628 277.452 855.614 277.408 851.6 277.496 847.586 277.253 847.564 276.184 847.508 274.044 847.475 272.985Z" fill="#FFFFFF" transform="matrix(1.00121 0 0 1 1670 759)"/><path d="M409.991 56.1234C422.828 54.05 435.918 55.2301 448.866 54.8992 457.655 55.6823 466.5 55.0316 475.29 55.9028 490.013 58.0864 502.464 68.6516 509.092 81.6982 512.632 88.4145 513.503 96.1343 513.393 103.623 513.349 115.401 513.58 127.179 513.238 138.957 512.102 158.301 496.707 174.8 478.576 180.159 464.316 181.891 449.924 181.362 435.599 181.593 424.217 181.262 412.141 182.542 401.598 177.314 387.184 171.304 376.586 157.518 373.564 142.332 372.88 127.234 373.167 112.103 373.332 96.9945 373.31 89.7268 377.06 83.3194 380.369 77.1104 386.798 66.4018 397.804 58.7702 409.991 56.1234Z" fill="#50B5AD" transform="matrix(1.00121 0 0 1 1670 759)"/></g></g></g><g><g><g><path d="M0 9.24412C0.581625 2.475 8.53875-2.09137 14.5777 1.17562 17.6715 2.94525 21.3221 2.59875 24.6386 3.63825 28.3883 5.03662 30.3559 8.74912 32.2616 12.0037 34.6129 13.0556 36.5805 14.7015 37.6942 17.0527 38.0779 14.058 38.6224 10.89 40.788 8.613 43.2259 5.33362 47.619 4.92525 50.5766 2.30175 55.7741-2.25225 64.8821 0.705375 66.6765 7.28887 67.9759 10.494 66.3795 13.6868 64.8574 16.4711 65.6123 21.6067 62.5185 26.0741 58.1872 28.4996 56.331 33.4867 50.9107 36.1102 45.7751 34.8232 49.7475 32.6452 52.965 29.5886 54.9945 25.5296 58.6822 23.463 61.479 19.8742 60.2662 15.3821 62.0482 12.7339 63.2115 8.84812 60.3281 6.47212 57.5561 3.65062 53.4971 5.3955 51.3686 8.04375 45.9484 8.65012 42.0007 12.8947 41.4315 18.2531 39.8599 20.8643 38.6471 23.6734 37.3725 26.433 36.3577 21.6439 34.2664 16.533 28.8337 15.5925 27.3364 9.64012 21.2974 6.39787 15.4192 7.16512 12.6967 5.03662 8.37787 4.14562 6.19987 7.51162 3.58875 10.4569 5.86575 14.1075 8.32837 16.2113 8.93475 22.077 13.4392 26.6929 19.3298 27.3116 21.3592 31.0612 25.2697 32.6205 28.9451 34.254 26.6434 36.1597 23.2897 36.432 20.889 38.3625 17.6591 38.7585 14.0332 38.6842 11.3974 40.9118 9.44212 43.1764 7.85812 45.738 5.9895 48.0769 3.762 50.7004 5.70487 54.945 8.73675 55.9102 10.9024 56.8507 12.9937 55.4152 14.9985 54.747 19.1318 56.7641 23.661 55.5142 26.5444 52.0245 31.0489 51.8389 35.0707 49.8589 38.5357 47.0869 38.115 52.3091 33.462 55.5266 28.6357 56.2691 25.1584 59.2144 20.8519 60.7489 16.2607 59.8331 9.93712 63.558 0.891 60.0559 0 52.4329L0 49.6485C0.495 46.8146 2.30175 44.5871 4.43025 42.768 6.74437 36.5062 13.8229 34.3654 19.9361 34.6747 18.8595 33.5981 17.7952 32.4967 16.7434 31.383 10.3455 30.6281 5.03662 25.344 4.38075 18.909 2.43788 16.929 0.581625 14.7386 0 11.9419L0 9.24412Z" fill="url(#fill1)" transform="matrix(1 0 0 1.00069 1953 510.054)"/><path d="M115.285 10.0732C119.951 0.42075 133.007-2.41313 142.102 2.43788 152.039 7.66012 156.667 18.711 165.664 25.0717 178.918 34.8727 189.56 47.7799 198.322 61.6522 211.402 81.6997 223.703 102.428 232.786 124.629 234.816 130.049 237.427 135.618 236.771 141.57 229.878 141.298 224.569 136.273 219.136 132.611 221.71 140.246 224.581 147.782 227.316 155.38 228.108 157.571 228.752 160.776 226.302 162.162 222.057 163.932 216.377 160.924 212.825 164.662 210.152 166.716 208.123 170.837 204.249 170.305 201.49 169.934 201.044 166.765 200.537 164.575 197.913 150.245 195.191 135.902 193.52 121.436 196.218 121.386 195.599 124.492 196.354 126.163 198.916 136.942 201.948 147.621 204.138 158.487 204.608 160.058 204.559 161.952 205.784 163.189 208.259 162.793 209.756 160.182 211.328 158.412 210.585 150.826 207.937 143.55 207.318 135.927L208.667 136.793C211.662 143.488 213.184 150.752 216.253 157.422 218.32 157.422 220.386 157.435 222.453 157.435 222.651 154.254 221.092 151.383 220.188 148.426 217.763 141.842 215.709 135.085 213.011 128.626 193.99 114.085 175.552 98.1832 161.593 78.5441 155.059 69.3124 149.762 59.103 146.879 48.1264 146.322 46.2577 146.198 44.3025 146.285 42.3596 148.141 43.8322 148.859 46.1464 149.849 48.2006 157.707 65.5875 168.461 81.6997 181.752 95.4112 196.428 110.422 213.555 122.723 230.905 134.417 223.616 114.679 213.63 96.0671 202.702 78.1234 191.355 60.0311 179.549 41.382 161.914 28.7224 153.574 23.0175 149.366 13.0185 140.753 7.66012 135.828 4.54163 129.059 4.257 124.195 7.64775 118.602 11.1127 118.614 18.4882 114.592 23.2279 116.028 23.2402 118.899 23.265 120.334 23.2897 119.283 25.0965 118.231 26.9156 117.154 28.7224 121.77 28.116 126.967 27.126 131.2 29.6505 134.727 31.68 135.506 35.9989 136.15 39.6743 137.449 48.4852 137.82 57.7417 142.077 65.7855 145.951 74.2376 152.212 81.1924 158.425 87.9739 157.323 88.1471 156.172 88.2461 155.38 87.2809 146.161 80.0291 137.424 70.9582 134.38 59.301 132.202 51.9502 132.029 44.1787 130.098 36.7785 129.628 34.4025 127.425 32.9794 125.161 32.6205 120.186 31.7419 115.211 33.1403 110.336 34.0189 111.536 31.68 112.736 29.3659 113.937 27.0394 111.375 27.027 108.826 27.027 106.264 27.027 109.593 21.5449 113.12 16.1494 115.285 10.0732Z" fill="url(#fill2)" transform="matrix(1 0 0 1.00069 1953 510.054)"/><path d="M288.573 0.86625C295.156 1.24987 302.049-0.160875 308.385 2.09137 315.624 4.83862 315.068 17.6096 307.086 18.9585 314.82 20.5425 317.481 31.6924 311.157 36.3949 304.413 40.5652 296.084 38.8451 288.573 39.2287 288.573 26.433 288.573 13.6496 288.573 0.86625M292.236 3.84862C292.236 8.53875 292.236 13.2289 292.236 17.919 296.913 17.6715 301.913 18.7234 306.318 16.7681 310.971 14.5406 310.835 6.74437 306.021 4.78912 301.665 3.00712 296.802 4.13325 292.236 3.84862M292.273 20.8643C292.211 25.938 292.236 31.0117 292.236 36.0855 297.186 35.838 302.445 36.8775 307.147 34.8727 311.986 32.8556 312.271 25.0346 307.766 22.4977 303.027 19.9361 297.421 21.1241 292.273 20.8643Z" fill="url(#fill3)" transform="matrix(1 0 0 1.00069 1953 510.054)"/><path d="M379.281 2.01712C382.462 1.42312 383.254 6.32363 379.925 6.59587 376.893 7.28887 376.225 2.06662 379.281 2.01712Z" fill="url(#fill4)" transform="matrix(1 0 0 1.00069 1953 510.054)"/><path d="M202.777 5.03662C204.472 5.03662 206.18 5.03662 207.888 5.03662 205.301 10.8776 202.269 16.9414 202.579 23.4877 202.851 26.8042 206.613 26.8166 209.088 26.2597 216.934 24.6386 224.272 21.2603 231.87 18.7605 231.87 20.0722 231.87 22.6957 231.87 24.0075 223.208 26.7176 214.756 30.8509 205.598 31.3954 200.339 31.6676 197.159 26.6062 197.554 21.8171 194.386 26.9775 191.231 32.175 187.456 36.9146 186.33 35.739 185.229 34.5386 184.115 33.3506 190.921 24.3169 197.109 14.8376 202.777 5.03662Z" fill="url(#fill5)" transform="matrix(1 0 0 1.00069 1953 510.054)"/><path d="M125.21 12.8205C127.054 11.2365 131.212 12.177 131.658 14.8005 130.581 16.83 128.539 18.2036 126.386 18.9214 122.871 19.4659 123.193 14.3179 125.21 12.8205Z" fill="url(#fill6)" transform="matrix(1 0 0 1.00069 1953 510.054)"/><path d="M321.651 12.969C322.48 12.7463 324.126 12.2884 324.955 12.0532 325.277 18.81 324.51 25.6286 325.351 32.3359 326.762 38.5976 336.13 38.016 338.431 32.6824 341.327 26.2969 339.459 19.008 340.003 12.2389 340.857 12.2265 342.565 12.2265 343.419 12.2141 343.48 21.2231 343.443 30.2321 343.443 39.2411 342.651 39.2287 341.067 39.204 340.275 39.1916 340.201 37.7437 340.139 36.3083 340.09 34.8727 337.182 39.1421 331.365 41.0974 326.576 38.9317 322.975 37.4468 321.441 33.363 321.589 29.7 321.651 24.1312 321.49 18.5501 321.651 12.969Z" fill="url(#fill7)" transform="matrix(1 0 0 1.00069 1953 510.054)"/><path d="M352.725 23.5249C349.321 19.8742 351.908 13.5259 356.474 12.3131 361.263 10.9766 366.943 11.8676 370.644 15.3202 370.173 15.939 369.233 17.1765 368.763 17.7952 365.421 15.4564 360.966 13.2784 357.006 15.4811 354.729 16.4835 353.69 19.8247 355.831 21.5077 360.013 24.4778 365.83 24.0817 369.777 27.4972 372.574 30.7519 371.312 36.5557 367.377 38.3625 361.598 41.2087 354.581 39.6495 349.656 35.8009 350.225 35.1326 351.351 33.7961 351.92 33.1155 355.521 36.1474 360.707 38.3006 365.236 35.9494 367.822 34.9346 368.763 31.1726 366.498 29.3535 362.29 26.5815 356.511 27.0518 352.725 23.5249Z" fill="url(#fill8)" transform="matrix(1 0 0 1.00069 1953 510.054)"/><path d="M378.056 12.0656C380.321 11.7439 381.397 12.6225 381.286 14.7262 381.36 22.8195 381.15 30.9127 381.385 39.006 380.259 39.105 379.145 39.2164 378.031 39.303 378.031 30.2321 377.982 21.1489 378.056 12.0656Z" fill="url(#fill9)" transform="matrix(1 0 0 1.00069 1953 510.054)"/><path d="M389.998 12.2017C390.716 12.2141 392.176 12.2389 392.894 12.2512 392.968 13.3155 393.104 15.4316 393.166 16.4959 397.312 10.1846 408.957 9.71437 411.357 17.7458 412.521 24.8119 411.568 32.076 411.877 39.2287 411.023 39.2287 409.303 39.2287 408.449 39.2287 408.177 32.3978 409.018 25.4677 407.942 18.6986 405.912 12.4864 396.532 13.9219 394.527 19.4659 392.176 25.7524 393.673 32.6576 393.265 39.2164 392.436 39.2164 390.778 39.2287 389.949 39.2411 389.961 30.2321 389.887 21.2107 389.998 12.2017Z" fill="url(#fill10)" transform="matrix(1 0 0 1.00069 1953 510.054)"/><path d="M423.213 37.0755C414.612 29.8732 418.003 11.583 430.6 11.7191 438.508 10.9147 443.161 19.1812 442.282 26.1607 435.489 26.1855 428.707 26.1236 421.913 26.2102 422.136 30.2197 423.67 34.7861 427.828 36.2216 432.259 38.214 437.023 35.7885 440.129 32.571 440.649 33.1031 441.689 34.1674 442.208 34.6995 437.741 40.293 428.856 41.5924 423.213 37.0755M421.888 23.1784C427.593 23.3145 433.298 23.2897 439.003 23.2031 438.706 19.2184 436.392 14.8748 431.937 14.6396 426.653 13.7857 422.668 18.3769 421.888 23.1784Z" fill="url(#fill11)" transform="matrix(1 0 0 1.00069 1953 510.054)"/><path d="M449.41 23.1165C446.688 19.5649 448.854 13.9837 452.95 12.5854 457.962 10.6425 463.617 12.1027 467.899 15.0975 467.156 15.9885 466.414 16.8671 465.684 17.7458 462.615 15.4935 458.63 13.563 454.818 15.1346 452.405 15.8895 450.499 19.1936 452.702 21.2231 456.65 24.5025 462.491 23.9951 466.537 27.2002 469.903 30.4177 468.418 36.6052 464.273 38.4367 458.556 41.1592 451.564 39.6495 446.737 35.8009 447.307 35.145 448.458 33.8209 449.027 33.1526 452.702 36.2464 458.085 38.3377 462.639 35.8132 465.139 34.6252 465.783 30.8632 463.382 29.205 459.038 26.5196 453.061 27.0022 449.41 23.1165Z" fill="url(#fill12)" transform="matrix(1 0 0 1.00069 1953 510.054)"/><path d="M478.108 13.0309C483.231 10.5187 489.765 11.6944 494.01 15.4316 493.441 16.0009 492.302 17.1394 491.745 17.7086 488.775 15.642 485.112 13.6744 481.412 14.9614 478.752 15.5306 476.635 18.8595 478.69 21.1984 482.897 24.6386 489.258 23.9209 493.218 27.7695 495.953 31.2592 494.183 36.8156 490.223 38.5234 484.494 41.1221 477.613 39.6 472.799 35.7637 473.381 35.1079 474.532 33.7961 475.101 33.1403 478.628 36.0112 483.504 38.1893 487.971 36.1721 490.533 35.3182 492.129 31.8904 490.075 29.7495 485.855 26.2969 479.271 27.2992 475.485 23.0917 473.096 19.8495 474.569 14.8129 478.108 13.0309Z" fill="url(#fill13)" transform="matrix(1 0 0 1.00069 1953 510.054)"/><path d="M14.5406 13.6868C20.889 15.2336 26.4949 19.3916 30.3064 24.651 27.7695 27.4725 25.5915 23.7105 23.5373 22.3121 20.6044 19.3916 16.4959 17.4859 14.5406 13.6868Z" fill="url(#fill14)" transform="matrix(1 0 0 1.00069 1953 510.054)"/><path d="M42.9165 27.4972C45.2059 21.8914 48.9803 16.3474 54.5243 13.6001 52.4081 19.3916 48.1387 24.0694 45.1316 29.4154 44.5747 28.9327 43.4734 27.9675 42.9165 27.4972Z" fill="url(#fill15)" transform="matrix(1 0 0 1.00069 1953 510.054)"/><path d="M71.9482 20.9261C76.2052 15.8647 83.9149 14.7015 89.7064 17.721 93.7035 19.8 98.2822 19.3916 102.626 19.3916 101.054 21.7552 99.4579 24.0941 97.8491 26.4206 99.9776 27.9799 102.081 29.5639 104.185 31.1602 98.208 32.8185 92.7259 35.8751 88.8525 40.8004 87.7635 35.7761 92.8249 31.9522 96.7354 29.7742 95.5102 28.9204 94.2727 28.0541 93.0476 27.2002 93.9634 25.9627 94.8915 24.7376 95.8072 23.5125 90.189 24.1312 85.14 18.8842 79.5836 21.6067 73.854 23.8714 73.7426 30.7395 71.9111 35.7142 69.498 43.3867 63.3229 48.8194 58.5709 55.0316 53.757 61.1696 50.6014 68.3719 47.2477 75.3514 45.8494 75.3514 43.0526 75.3637 41.6666 75.3637 44.4139 68.4585 47.3839 61.5532 51.7275 55.4771 55.9226 49.0545 62.2586 44.1911 65.6618 37.2364 68.2357 31.977 68.1986 25.6286 71.9482 20.9261Z" fill="url(#fill16)" transform="matrix(1 0 0 1.00069 1953 510.054)"/><path d="M81.9844 30.4177C80.5365 28.4377 81.6131 25.1584 84.1005 24.651 86.1176 24.4159 87.4789 25.7524 88.5679 27.2374 87.1695 29.304 84.6697 31.5686 81.9844 30.4177Z" fill="url(#fill17)" transform="matrix(1 0 0 1.00069 1953 510.054)"/><path d="M195.587 47.124C208.952 40.1692 222.824 34.2664 236.907 28.9327 236.907 30.7024 236.919 32.4596 236.944 34.2292 230.002 36.7537 223.134 39.4639 216.426 42.5205 221.29 44.847 226.784 42.0379 231.846 41.6419 231.858 42.6071 231.895 44.5624 231.907 45.5276 220.993 48.8317 208.977 45.639 198.619 51.1582 197.592 49.8217 196.589 48.4729 195.587 47.124Z" fill="url(#fill18)" transform="matrix(1 0 0 1.00069 1953 510.054)"/><path d="M36.5062 35.3677C37.0012 34.848 37.9912 33.7961 38.4986 33.2764 42.8175 37.818 46.3567 43.0526 49.4629 48.4852 48.2749 50.0074 47.0993 51.5419 45.9236 53.0764 43.4239 46.8641 40.2311 40.9489 36.5062 35.3677Z" fill="url(#fill19)" transform="matrix(1 0 0 1.00069 1953 510.054)"/><path d="M16.7681 46.3939C21.1612 43.3125 26.3835 41.4191 31.7419 41.0726 31.7542 41.7285 31.7914 43.0279 31.8037 43.6714 26.0865 45.3915 20.5549 47.6685 14.8005 49.2525 15.0356 47.9902 15.6915 47.0374 16.7681 46.3939Z" fill="url(#fill20)" transform="matrix(1 0 0 1.00069 1953 510.054)"/><path d="M79.893 48.9679C82.8382 43.758 89.3351 41.2211 95.0895 42.5947 99.7549 43.8075 104.519 42.9165 109.11 41.8275 108.046 44.3644 106.994 46.9136 106.153 49.5371 108.479 50.49 110.806 51.4429 113.182 52.272 106.066 57.4076 100.708 65.2657 100.151 74.2005 99.5816 76.725 100.522 79.893 98.4679 81.8854 94.5697 71.8369 97.6635 60.1054 105.645 52.965 104.259 52.3957 102.861 51.8141 101.475 51.2325 102.094 49.8094 102.712 48.3862 103.344 46.9755 97.8615 49.1906 91.2904 44.7727 86.4889 49.3144 81.3532 53.2372 83.5436 60.2044 81.5265 65.4885 78.2471 71.9854 73.4827 77.5541 69.4609 83.5807 67.9511 82.8011 66.4414 82.0215 64.9316 81.2419 67.8645 76.3414 71.28 71.775 74.6955 67.221 79.0267 62.0235 76.2671 54.4747 79.893 48.9679Z" fill="url(#fill21)" transform="matrix(1 0 0 1.00069 1953 510.054)"/><path d="M92.0205 51.381C93.7035 49.8465 97.3912 50.4529 97.6882 52.9526 96.9829 55.6132 94.1861 57.0364 91.575 56.7889 91.4017 55.0069 90.882 52.9897 92.0205 51.381Z" fill="url(#fill22)" transform="matrix(1 0 0 1.00069 1953 510.054)"/><path d="M288.511 58.2491C290.367 53.46 295.911 51.3934 300.725 51.7027 305.328 51.4552 309.486 53.6951 313.236 56.0959 312.592 57.1725 311.937 58.2491 311.268 59.301 306.838 55.6751 300.465 53.1382 294.995 56.0587 291.134 57.8408 290.132 63.8921 293.857 66.33 299.364 70.0054 306.974 69.399 311.85 74.2376 316.119 78.8659 313.991 87.1447 308.335 89.6321 300.997 92.9486 291.592 91.3399 285.986 85.4494 286.58 84.7935 287.768 83.4817 288.362 82.8135 293.015 87.6397 300.651 89.8549 306.789 86.6126 310.563 84.843 311.887 79.2371 308.682 76.329 303.299 72.2824 295.725 72.7774 290.553 68.31 287.632 65.9216 287.397 61.5904 288.511 58.2491Z" fill="url(#fill23)" transform="matrix(1 0 0 1.00069 1953 510.054)"/><path d="M392.906 56.331C392.201 53.4971 395.567 53.0887 397.473 54.054 397.522 55.143 397.584 56.232 397.658 57.3334 396.062 57.9893 393.216 58.8926 392.906 56.331Z" fill="url(#fill24)" transform="matrix(1 0 0 1.00069 1953 510.054)"/><path d="M320.488 70.6117C322.95 63.7189 332.38 60.9964 338.271 65.1791 342.169 67.8274 343.307 72.9135 343.072 77.3561 336.291 78.012 329.398 77.3932 322.567 77.6407 322.901 81.5141 324.361 85.7959 328.173 87.5284 332.566 89.7682 337.701 87.615 340.696 84.0881 341.5 84.8059 342.33 85.5236 343.146 86.2414 338.815 91.3399 330.907 92.9857 325.128 89.4218 319.065 85.4741 318.211 76.9354 320.488 70.6117M326.428 67.7902C324.2 69.3866 323.544 72.2081 322.666 74.646 328.383 74.7202 334.088 74.6955 339.805 74.6707 339.149 72.27 338.939 69.4237 336.81 67.7902 333.877 65.5132 329.398 65.6618 326.428 67.7902Z" fill="url(#fill25)" transform="matrix(1 0 0 1.00069 1953 510.054)"/><path d="M353.059 67.9511C355.064 64.8821 359.023 61.9121 362.773 63.756L362.996 66.5527C359.209 66.1196 354.779 67.518 353.863 71.676 352.477 77.8882 353.566 84.3604 353.207 90.684 352.353 90.684 350.646 90.684 349.792 90.6716 349.779 81.774 349.792 72.864 349.792 63.9664 350.534 63.9664 352.032 63.9664 352.786 63.9664 352.848 64.9564 352.984 66.9487 353.059 67.9511Z" fill="url(#fill26)" transform="matrix(1 0 0 1.00069 1953 510.054)"/><path d="M393.513 63.9664C394.701 63.9664 395.889 63.9787 397.089 63.9911 396.965 72.8887 397.077 81.7864 397.027 90.6716 396.148 90.684 394.416 90.684 393.55 90.684 393.5 81.774 393.562 72.864 393.513 63.9664Z" fill="url(#fill27)" transform="matrix(1 0 0 1.00069 1953 510.054)"/><path d="M410.974 64.4737C416.159 61.9245 424.091 63.1496 426.69 68.7308 426.17 69.1391 425.118 69.9559 424.586 70.3643 421.987 66.9859 417.434 64.9811 413.313 66.7755 404.489 70.2652 405.318 85.7093 414.562 88.1224 418.436 89.3599 422.173 87.1324 424.586 84.2366 425.23 84.645 426.517 85.4741 427.16 85.8949 422.606 93.4312 410.058 92.9981 405.776 85.4246 401.816 78.6555 403.252 67.914 410.974 64.4737Z" fill="url(#fill28)" transform="matrix(1 0 0 1.00069 1953 510.054)"/><path d="M432.321 69.5228C435.612 62.8031 445.661 61.0087 451.007 66.2929 454.039 69.1762 454.447 73.5941 454.559 77.5417 447.678 77.715 440.797 77.5541 433.917 77.6407 434.276 81.8606 436.169 86.6745 440.612 87.9739 444.844 89.4465 449.299 87.2933 452.046 84.051 452.863 84.7811 453.692 85.5112 454.521 86.2414 450.178 91.3027 442.245 93.0229 436.491 89.4094 430.093 85.2514 429.326 75.9701 432.321 69.5228M437.84 67.7284C435.612 69.3743 434.944 72.1957 434.053 74.6584 439.77 74.7079 445.488 74.7079 451.205 74.6707 450.549 72.567 450.388 70.1539 448.841 68.4709 446.057 65.5009 441.07 65.4885 437.84 67.7284Z" fill="url(#fill29)" transform="matrix(1 0 0 1.00069 1953 510.054)"/><path d="M464.31 64.4985C469.421 61.8379 475.571 63.5704 480.076 66.6765 479.519 67.32 478.417 68.5822 477.861 69.2257 473.863 65.6618 465.498 64.2262 463.456 70.5622 466.302 76.9849 475.46 74.4232 479.494 79.6084 481.808 83.1724 480.162 88.6174 476.128 90.1519 470.398 92.5526 463.592 91.1666 458.853 87.2685 459.645 86.3775 460.437 85.4741 461.241 84.5955 464.755 87.8996 470.2 89.7188 474.73 87.3551 477.019 86.229 478.046 82.8011 475.868 81.0315 471.71 78.111 465.943 78.5317 462.07 75.1039 458.964 72.0101 460.498 66.2805 464.31 64.4985Z" fill="url(#fill30)" transform="matrix(1 0 0 1.00069 1953 510.054)"/><path d="M14.0827 70.9954C21.3469 65.4019 31.086 64.7955 39.9094 64.1273 39.2906 65.4638 38.6595 66.8002 38.0284 68.1367 31.2592 69.0896 23.7229 69.4361 18.3521 74.2624 20.6663 79.1257 26.0122 81.2419 30.9004 82.5041 36.0731 84.1376 40.5158 79.6579 45.639 80.1157 53.3486 80.9201 60.489 84.3232 67.3076 87.8378 66.4042 88.8772 65.5009 89.9167 64.5851 90.9562 56.6156 88.2337 47.8789 82.7393 39.402 86.7487 32.076 90.2509 24.4778 85.7216 18.1912 82.1205 18.0304 91.4512 28.116 96.0424 35.5286 98.9258 35.8132 100.225 36.0855 101.524 36.3454 102.824 30.8509 102.391 25.839 100.077 21.0994 97.416 20.8271 103.43 26.0246 107.415 29.601 111.523 32.9422 115.236 37.9417 111.363 42.0502 112.241 50.3415 113.986 57.2962 119.431 63.1867 125.284 61.9864 126.25 60.786 127.215 59.5856 128.18 54.8212 123.713 49.5742 119.456 43.2877 117.402 37.9417 115.434 32.769 118.75 27.9304 120.656 21.4211 123.762 14.2807 125.569 8.14275 129.418 3.9105 132.388 5.742 138.08 5.02425 142.411 4.554 144.775 1.74487 144.28 0 144.763L0 135.222C0.2475 131.088 2.28937 126.98 6.10087 125.074 12.7834 121.733 19.7752 119.035 26.6805 116.176 23.1413 112.155 18.8347 108.492 16.8424 103.393 15.5554 100.361 16.4959 97.0819 16.6815 93.951 15.9761 91.0924 13.4145 89.0381 12.5977 86.1795 12.1151 83.2466 13.3279 80.3138 12.87 77.3809 12.6473 75.1781 11.8429 72.468 14.0827 70.9954Z" fill="url(#fill31)" transform="matrix(1 0 0 1.00069 1953 510.054)"/><path d="M363.899 63.8674C364.827 63.9169 366.684 64.0283 367.624 64.0777 370.891 71.4532 373.329 79.1876 376.46 86.6374 379.467 79.1505 381.991 71.4532 385.258 64.0654 386.125 64.0283 387.87 63.9292 388.748 63.8797 385.258 72.9011 381.397 81.774 377.97 90.8201 375.829 91.0181 373.985 90.5602 373.638 88.209 370.495 80.0539 367.166 71.973 363.899 63.8674Z" fill="url(#fill32)" transform="matrix(1 0 0 1.00069 1953 510.054)"/><path d="M108.566 69.0649C109.271 67.7408 109.989 66.4166 110.707 65.0925 116.597 65.142 122.5 65.1296 128.391 65.0925 129.009 66.3919 129.616 67.7036 130.234 69.003 123.007 69.1391 115.78 69.0525 108.566 69.0649Z" fill="url(#fill33)" transform="matrix(1 0 0 1.00069 1953 510.054)"/><path d="M178.633 71.1562C179.227 71.5027 180.415 72.1834 181.009 72.5175 191.28 84.6326 202.207 96.2032 213.828 107.044 213.592 107.353 213.122 107.972 212.887 108.281 201.589 100.695 191.144 91.5131 183.447 80.2024 181.566 77.3561 179.376 74.5717 178.633 71.1562Z" fill="url(#fill34)" transform="matrix(1 0 0 1.00069 1953 510.054)"/><path d="M118.812 85.4246C125.916 86.625 133.192 85.5607 139.837 82.863 140.852 83.8654 141.867 84.8554 142.882 85.8701 135.915 89.694 127.908 91.6616 119.976 90.4365 112.031 89.1742 103.653 88.6421 96.0671 91.8596 95.2999 90.7087 94.545 89.5579 93.8272 88.3822 101.339 83.7664 110.422 84.1253 118.812 85.4246Z" fill="url(#fill35)" transform="matrix(1 0 0 1.00069 1953 510.054)"/><path d="M68.0378 96.8096C72.6041 90.9562 79.8311 88.11 86.4765 85.3132 87.318 86.427 88.1595 87.5407 89.001 88.6421 82.566 91.6121 74.5222 93.6292 71.0078 100.386 73.161 103.368 77.1334 102.613 80.2642 102.081 85.5979 101.091 90.3499 98.406 95.337 96.4631 97.1685 95.2875 98.0224 97.8986 99.198 98.7772 90.7582 103.133 81.5636 107.984 71.7626 106.611 67.1467 106.165 65.043 100.213 68.0378 96.8096Z" fill="url(#fill36)" transform="matrix(1 0 0 1.00069 1953 510.054)"/><path d="M127.289 108.133C135.296 103.715 140.159 95.5721 145.975 88.803 147.052 89.5702 148.129 90.3375 149.193 91.1048 144.342 97.317 139.738 103.814 133.947 109.209 131.324 111.523 127.611 114.147 124.01 112.365 120.31 110.459 119.691 105.893 119.085 102.205 110.83 102.985 103.096 106.301 95.9557 110.323 95.6959 109.333 95.1885 107.366 94.9286 106.375 103.851 101.203 113.739 97.7749 124.022 96.7354 124.579 100.584 123.441 105.67 127.289 108.133Z" fill="url(#fill37)" transform="matrix(1 0 0 1.00069 1953 510.054)"/><path d="M35.7637 93.3322C40.7632 91.3522 47.5819 88.2461 52.173 92.6021 57.0982 98.505 58.6327 107.229 65.8102 111.214 73.6436 116.003 83.0857 112.179 90.4241 108.294 90.7954 109.618 91.179 110.929 91.5502 112.254 84.1253 116.337 75.141 119.109 66.7879 116.288 61.8379 114.803 58.0387 111.053 54.9574 107.068 50.1064 107.761 45.0202 108.714 40.2188 107.229 40.0455 106.437 39.7114 104.841 39.5381 104.049 43.9189 103.826 48.3986 103.999 52.6556 102.787 50.8612 99.9405 49.698 95.6092 45.8618 94.9781 42.8422 94.8915 39.996 96.1042 37.0631 96.6364 36.6176 95.535 36.1969 94.4336 35.7637 93.3322Z" fill="url(#fill38)" transform="matrix(1 0 0 1.00069 1953 510.054)"/><path d="M136.174 116.362C141.533 108.158 148.017 100.176 156.964 95.733 158.251 96.5869 159.551 97.4407 160.85 98.2822 151.643 102.675 145.06 110.843 140.085 119.505 146.57 120.26 151.953 116.102 156.828 112.464 158.338 118.057 152.571 120.619 148.426 122.475 144.688 124.319 140.481 124.084 136.447 123.936 123.205 130.606 108.133 131.955 93.5179 131.732 94.347 130.47 94.2109 127.673 96.3146 127.66 102.576 127.153 108.974 127.512 115.087 125.767 112.971 122.03 110.373 116.337 105.064 117.364 97.4531 119.146 90.5231 123.007 83.4941 126.324 82.8877 125.532 81.6626 123.96 81.0562 123.168 88.6298 118.763 96.5869 114.704 105.088 112.452 112.65 111.041 117.835 118.602 120.112 124.789 125.953 123.255 132.573 121.708 136.174 116.362Z" fill="url(#fill39)" transform="matrix(1 0 0 1.00069 1953 510.054)"/><path d="M171.27 103.74C172.767 104.519 174.24 105.348 175.7 106.19 168.832 121.052 156.667 133.972 141.174 139.788 127.623 143.377 113.392 140.122 99.6311 142.114 94.0747 143.03 88.7164 145.542 82.9744 145.097 76.9849 144.812 71.3666 142.102 66.924 138.179 59.9445 143.352 53.3239 148.983 46.2701 154.044 41.6914 157.224 35.9865 157.695 30.5786 157.794 30.9127 156.259 31.3335 154.762 31.8532 153.289 36.8156 153.178 42.3844 152.485 45.9731 148.661 48.4605 145.419 48.4605 140.803 47.223 137.053 45.639 132.722 40.689 131.534 36.8775 129.987 38.3625 129.009 39.8722 128.057 41.3696 127.104 44.5005 128.675 48.0026 130.012 50.1435 132.932 52.2349 136.051 52.1359 139.974 52.2225 143.587 59.1772 138.266 66.2557 133.13 73.26 127.908 74.0768 128.985 74.9059 130.074 75.7226 131.15 74.1386 132.351 72.567 133.563 70.983 134.764 76.1186 139.367 83.5807 141.384 90.2014 139.033 104.272 134.293 119.258 137.016 133.774 135.915 143.092 135.048 150.975 129.183 157.633 123.02 163.239 117.439 168.015 110.967 171.27 103.74Z" fill="url(#fill40)" transform="matrix(1 0 0 1.00069 1953 510.054)"/><path d="M288.857 122.475C289.464 122.475 290.689 122.475 291.295 122.475 291.295 128.23 291.295 133.972 291.295 139.726 294.277 139.726 297.247 139.726 300.23 139.738L300.217 141.31C296.431 141.31 292.644 141.31 288.857 141.31 288.845 135.036 288.857 128.749 288.857 122.475Z" fill="url(#fill41)" transform="matrix(1 0 0 1.00069 1953 510.054)"/><path d="M308.608 122.587C309.326 122.574 310.761 122.537 311.479 122.525 313.904 128.886 316.577 135.147 319.114 141.471 315.637 142.634 315.587 138.786 314.473 136.855 311.466 136.843 308.484 136.843 305.489 136.855 304.363 138.699 304.425 142.449 301.121 141.508 303.522 135.16 306.17 128.91 308.608 122.587M306.207 134.986C308.719 134.986 311.219 134.986 313.731 134.986 312.493 131.695 311.281 128.403 310.093 125.099 308.756 128.378 307.469 131.67 306.207 134.986Z" fill="url(#fill42)" transform="matrix(1 0 0 1.00069 1953 510.054)"/><path d="M317.728 122.475C322.505 122.475 327.269 122.475 332.046 122.475L332.095 124.096C330.116 124.096 328.123 124.096 326.155 124.109 326.155 129.838 326.143 135.568 326.155 141.31 325.537 141.31 324.287 141.322 323.668 141.322 323.656 135.58 323.668 129.851 323.668 124.109 321.676 124.096 319.696 124.096 317.716 124.084L317.728 122.475Z" fill="url(#fill43)" transform="matrix(1 0 0 1.00069 1953 510.054)"/><path d="M338.011 122.624C338.728 122.599 340.164 122.55 340.869 122.525 343.344 128.848 346.03 135.098 348.393 141.471 345.015 142.597 345.102 138.649 343.926 136.855 340.919 136.843 337.899 136.843 334.905 136.855 333.902 138.798 333.618 141.966 330.586 141.694 332.566 135.147 335.771 129.071 338.011 122.624M335.647 134.986C338.159 134.986 340.659 134.986 343.171 134.986 341.896 131.719 340.622 128.44 339.347 125.186 338.122 128.452 336.897 131.719 335.647 134.986Z" fill="url(#fill44)" transform="matrix(1 0 0 1.00069 1953 510.054)"/><path d="M351.71 122.438C352.576 122.475 354.309 122.55 355.187 122.587 357.266 127.871 359.345 133.155 361.573 138.377 363.775 133.155 365.879 127.883 367.958 122.611 368.849 122.562 370.644 122.475 371.535 122.426 371.522 128.712 371.535 135.011 371.522 141.31L369.22 141.322C369.22 135.915 369.22 130.519 369.22 125.111 366.956 130.457 364.964 135.915 362.612 141.211 362.08 141.236 361.016 141.298 360.484 141.335 358.182 136.125 355.992 130.853 354.309 125.408 353.863 130.371 354.148 135.358 353.962 140.332 353.665 141.446 352.601 141.421 351.698 141.471 351.722 135.123 351.71 128.787 351.71 122.438Z" fill="url(#fill45)" transform="matrix(1 0 0 1.00069 1953 510.054)"/></g></g></g></g></svg>